G04*
G04 #@! TF.GenerationSoftware,Altium Limited,Altium Designer,20.0.10 (225)*
G04*
G04 Layer_Physical_Order=2*
G04 Layer_Color=11367680*
%FSLAX44Y44*%
%MOMM*%
G71*
G01*
G75*
%ADD45R,0.8500X0.8500*%
%ADD46R,0.8500X0.8500*%
%ADD57R,0.6000X1.1000*%
%ADD64R,3.1500X1.6000*%
%ADD66C,0.6000*%
%ADD67C,0.3000*%
%ADD68C,0.7000*%
%ADD69C,0.8000*%
%ADD71C,1.2000*%
%ADD73C,0.4000*%
%ADD74C,1.6000*%
%ADD75R,1.5000X1.5000*%
%ADD76C,1.5000*%
%ADD77R,1.5000X1.5000*%
%ADD78C,6.0000*%
%ADD79C,2.0000*%
%ADD80C,1.8000*%
%ADD81C,3.0000*%
%ADD82P,3.2472X8X202.5*%
%ADD83C,0.7000*%
%ADD84R,1.2000X1.6000*%
%ADD85R,1.0000X1.2500*%
%ADD86R,2.4500X3.2000*%
%ADD87R,3.3500X1.0000*%
%ADD88R,1.0000X0.5000*%
G36*
X715000Y595812D02*
X717224Y595369D01*
X719109Y594109D01*
X720369Y592224D01*
X720812Y590000D01*
X720922D01*
Y487750D01*
X717922Y485750D01*
X705889D01*
X703931Y488680D01*
X700292Y491112D01*
X696000Y491965D01*
X682328D01*
X681071Y492215D01*
X611627D01*
X609900Y494500D01*
Y515500D01*
X588900D01*
Y494500D01*
X587173Y492215D01*
X579516D01*
X578219Y494993D01*
X578256Y495215D01*
X581570Y497430D01*
X583891Y500903D01*
X584706Y505000D01*
X583891Y509097D01*
X581570Y512570D01*
X580118Y513541D01*
Y519750D01*
X581250D01*
Y532164D01*
X581250Y534250D01*
X580250Y536836D01*
Y543008D01*
X576121Y538879D01*
X574000Y541000D01*
X571879Y538879D01*
X567750Y543007D01*
Y536836D01*
X566750Y534250D01*
X566750Y532164D01*
Y519750D01*
X567882D01*
Y513541D01*
X566430Y512570D01*
X564109Y509097D01*
X563294Y505000D01*
X564109Y500903D01*
X566430Y497430D01*
X569744Y495215D01*
X569781Y494993D01*
X568484Y492215D01*
X554000D01*
X551716Y491761D01*
X548716Y494032D01*
Y506000D01*
X552750D01*
Y544000D01*
X522250D01*
Y506000D01*
X526284D01*
Y469146D01*
X502194Y445055D01*
X498708Y444362D01*
X495070Y441931D01*
X492638Y438292D01*
X491785Y434000D01*
X492638Y429708D01*
X495070Y426069D01*
X498708Y423638D01*
X503000Y422785D01*
X507000D01*
X511292Y423638D01*
X514930Y426069D01*
X553420Y464559D01*
X558646Y469785D01*
X679250D01*
Y469750D01*
X680238D01*
X681321Y469534D01*
X696000D01*
X697083Y469750D01*
X717922D01*
X718750Y469750D01*
X720922Y467750D01*
Y444250D01*
X717922Y442250D01*
X679250D01*
Y440627D01*
X659000D01*
X656464Y440123D01*
X654314Y438686D01*
X652877Y436536D01*
X652373Y434000D01*
X652877Y431464D01*
X654314Y429314D01*
X656464Y427877D01*
X659000Y427373D01*
X679250D01*
Y426250D01*
X679350D01*
X681271Y423250D01*
X680824Y421000D01*
X681522Y417488D01*
X683511Y414511D01*
X686488Y412522D01*
X690000Y411824D01*
X709000D01*
X712512Y412522D01*
X715489Y414511D01*
X717478Y417488D01*
X717922Y419720D01*
X720922Y419424D01*
Y354296D01*
X717922Y352900D01*
X697500D01*
Y331900D01*
X717922D01*
X718500Y331900D01*
X720922Y330504D01*
Y321237D01*
X717922Y320942D01*
X717891Y321097D01*
X715570Y324570D01*
X712097Y326891D01*
X708000Y327706D01*
X703903Y326891D01*
X700430Y324570D01*
X698109Y321097D01*
X697294Y317000D01*
X698109Y312903D01*
X700430Y309430D01*
X703903Y307109D01*
X708000Y306294D01*
X712097Y307109D01*
X715570Y309430D01*
X717891Y312903D01*
X717922Y313058D01*
X720922Y312763D01*
X720922Y10000D01*
X720812D01*
X720369Y7776D01*
X719109Y5890D01*
X717224Y4631D01*
X715000Y4188D01*
Y4078D01*
X10000D01*
Y4188D01*
X7776Y4631D01*
X5890Y5890D01*
X4631Y7776D01*
X4188Y10000D01*
X4078D01*
X4078Y587000D01*
X4188Y590000D01*
Y590000D01*
X4941Y592688D01*
X5890Y594109D01*
X7776Y595369D01*
X10000Y595812D01*
Y595922D01*
X715000D01*
Y595812D01*
D02*
G37*
%LPC*%
G36*
X576007Y547250D02*
X571992D01*
X574000Y545243D01*
X576007Y547250D01*
D02*
G37*
G36*
X644000Y572276D02*
X635646Y571176D01*
X627862Y567952D01*
X623578Y564665D01*
X644000Y544243D01*
X664422Y564665D01*
X660138Y567952D01*
X652354Y571176D01*
X644000Y572276D01*
D02*
G37*
G36*
X59000D02*
X50646Y571176D01*
X42862Y567952D01*
X38578Y564665D01*
X59000Y544243D01*
X79422Y564665D01*
X75138Y567952D01*
X67354Y571176D01*
X59000Y572276D01*
D02*
G37*
G36*
X480508Y543000D02*
X460493D01*
X470500Y532993D01*
X480508Y543000D01*
D02*
G37*
G36*
X668665Y560422D02*
X648243Y540000D01*
X668665Y519578D01*
X671952Y523862D01*
X675176Y531646D01*
X676276Y540000D01*
X675176Y548354D01*
X671952Y556138D01*
X668665Y560422D01*
D02*
G37*
G36*
X83665D02*
X63243Y540000D01*
X83665Y519578D01*
X86952Y523862D01*
X90176Y531646D01*
X91276Y540000D01*
X90176Y548354D01*
X86952Y556138D01*
X83665Y560422D01*
D02*
G37*
G36*
X619335D02*
X616048Y556138D01*
X612824Y548354D01*
X611724Y540000D01*
X612824Y531646D01*
X616048Y523862D01*
X619335Y519578D01*
X639757Y540000D01*
X619335Y560422D01*
D02*
G37*
G36*
X34335D02*
X31048Y556138D01*
X27824Y548354D01*
X26724Y540000D01*
X27824Y531646D01*
X31048Y523862D01*
X34335Y519578D01*
X54757Y540000D01*
X34335Y560422D01*
D02*
G37*
G36*
X456250Y538757D02*
Y511242D01*
X468379Y523371D01*
X470500Y521250D01*
X472621Y523371D01*
X484750Y511243D01*
Y538757D01*
X472621Y526629D01*
X470500Y528750D01*
X468379Y526629D01*
X456250Y538757D01*
D02*
G37*
G36*
X644000Y535757D02*
X623578Y515335D01*
X627862Y512048D01*
X635646Y508824D01*
X644000Y507724D01*
X652354Y508824D01*
X660138Y512048D01*
X664422Y515335D01*
X644000Y535757D01*
D02*
G37*
G36*
X59000D02*
X38578Y515335D01*
X42862Y512048D01*
X50646Y508824D01*
X59000Y507724D01*
X67354Y508824D01*
X75138Y512048D01*
X79422Y515335D01*
X59000Y535757D01*
D02*
G37*
G36*
X470500Y517007D02*
X460493Y507000D01*
X480507D01*
X470500Y517007D01*
D02*
G37*
G36*
X130758Y450000D02*
X123243D01*
X127000Y446243D01*
X130758Y450000D01*
D02*
G37*
G36*
X127000Y442000D02*
X125000Y440000D01*
X127000Y438000D01*
X129000Y440000D01*
X127000Y442000D01*
D02*
G37*
G36*
X135000Y445757D02*
X129243Y440000D01*
X135000Y434243D01*
Y445757D01*
D02*
G37*
G36*
X119000Y445757D02*
Y434243D01*
X124757Y440000D01*
X119000Y445757D01*
D02*
G37*
G36*
X127000Y433757D02*
X123243Y430000D01*
X130757D01*
X127000Y433757D01*
D02*
G37*
G36*
X130000Y423686D02*
X126293Y422949D01*
X125694Y422548D01*
X130000Y418242D01*
X134306Y422548D01*
X133707Y422949D01*
X130000Y423686D01*
D02*
G37*
G36*
X138548Y418306D02*
X134243Y414000D01*
X138548Y409694D01*
X138949Y410293D01*
X139686Y414000D01*
X138949Y417707D01*
X138548Y418306D01*
D02*
G37*
G36*
X116000Y520627D02*
X113464Y520123D01*
X111314Y518686D01*
X109877Y516536D01*
X109373Y514000D01*
X109877Y511464D01*
X110902Y509930D01*
Y485000D01*
X111081Y484098D01*
X109551Y481576D01*
X108986Y481098D01*
X72000D01*
X70049Y480710D01*
X68395Y479605D01*
X53273Y464483D01*
X51464Y464123D01*
X49314Y462686D01*
X47877Y460536D01*
X47373Y458000D01*
X47877Y455464D01*
X49314Y453314D01*
X51464Y451877D01*
X54000Y451373D01*
X56536Y451877D01*
X58686Y453314D01*
X60123Y455464D01*
X60483Y457273D01*
X74112Y470902D01*
X122888D01*
X150000Y443790D01*
Y438918D01*
X148806Y437131D01*
X148263Y434400D01*
Y424500D01*
X144900D01*
Y403500D01*
X165900D01*
Y424500D01*
X162537D01*
Y429000D01*
X168000D01*
Y432863D01*
X218044D01*
X232120Y418786D01*
X231765Y417000D01*
X232696Y412318D01*
X235348Y408349D01*
X239318Y405696D01*
X244000Y404765D01*
X248682Y405696D01*
X252652Y408349D01*
X255304Y412318D01*
X256235Y417000D01*
X255304Y421682D01*
X252652Y425652D01*
X248682Y428304D01*
X244000Y429235D01*
X242214Y428880D01*
X226047Y445047D01*
X223731Y446594D01*
X221000Y447137D01*
X168000D01*
Y451000D01*
X157210D01*
X128605Y479605D01*
X121098Y487112D01*
Y509930D01*
X122123Y511464D01*
X122627Y514000D01*
X122123Y516536D01*
X120686Y518686D01*
X118536Y520123D01*
X116000Y520627D01*
D02*
G37*
G36*
X204000Y429235D02*
X199318Y428304D01*
X195348Y425652D01*
X192696Y421682D01*
X191765Y417000D01*
X192696Y412318D01*
X195348Y408349D01*
X199318Y405696D01*
X204000Y404765D01*
X208682Y405696D01*
X212652Y408349D01*
X215304Y412318D01*
X216235Y417000D01*
X215304Y421682D01*
X212652Y425652D01*
X208682Y428304D01*
X204000Y429235D01*
D02*
G37*
G36*
X79200Y424706D02*
X75103Y423891D01*
X71630Y421570D01*
X69309Y418097D01*
X68494Y414000D01*
X69309Y409903D01*
X71630Y406430D01*
X75103Y404109D01*
X79200Y403294D01*
X83297Y404109D01*
X86770Y406430D01*
X89091Y409903D01*
X89906Y414000D01*
X89091Y418097D01*
X86770Y421570D01*
X83297Y423891D01*
X79200Y424706D01*
D02*
G37*
G36*
X457250Y363757D02*
X451493Y358000D01*
X457250Y352243D01*
Y363757D01*
D02*
G37*
G36*
X421750Y363757D02*
Y352243D01*
X427507Y358000D01*
X421750Y363757D01*
D02*
G37*
G36*
X453007Y368000D02*
X425993D01*
X433871Y360121D01*
X431750Y358000D01*
X433871Y355879D01*
X425993Y348000D01*
X453007D01*
X445129Y355879D01*
X447250Y358000D01*
X445129Y360121D01*
X453007Y368000D01*
D02*
G37*
G36*
X279140Y325345D02*
Y314831D01*
X284397Y320088D01*
X279140Y325345D01*
D02*
G37*
G36*
X450658Y293500D02*
X440143D01*
X445400Y288243D01*
X450658Y293500D01*
D02*
G37*
G36*
X420000Y293686D02*
X416293Y292949D01*
X415694Y292549D01*
X420000Y288243D01*
X424306Y292548D01*
X423707Y292949D01*
X420000Y293686D01*
D02*
G37*
G36*
X428549Y288306D02*
X424243Y284000D01*
X428548Y279694D01*
X428949Y280293D01*
X429686Y284000D01*
X428949Y287707D01*
X428549Y288306D01*
D02*
G37*
G36*
X411451Y288306D02*
X411051Y287707D01*
X410314Y284000D01*
X411051Y280293D01*
X411452Y279694D01*
X415757Y284000D01*
X411451Y288306D01*
D02*
G37*
G36*
X454900Y289257D02*
X449643Y284000D01*
X454900Y278743D01*
Y289257D01*
D02*
G37*
G36*
X435900Y289257D02*
Y278743D01*
X441157Y284000D01*
X435900Y289257D01*
D02*
G37*
G36*
X422000Y470176D02*
X418488Y469478D01*
X415511Y467489D01*
X383511Y435489D01*
X381522Y432512D01*
X380824Y429000D01*
Y371000D01*
Y369000D01*
X371750D01*
Y359977D01*
X344511Y332739D01*
X342522Y329762D01*
X341824Y326250D01*
Y276637D01*
X334904D01*
X332555Y279637D01*
X332627Y280000D01*
X332201Y282143D01*
X332338Y282832D01*
Y362250D01*
X331989Y364006D01*
X330994Y365494D01*
X327250Y369239D01*
Y377250D01*
X326627D01*
Y390000D01*
X326123Y392536D01*
X324686Y394686D01*
X318398Y400974D01*
X316248Y402411D01*
X313712Y402915D01*
X296840D01*
X296210Y403858D01*
X292737Y406179D01*
X288640Y406994D01*
X284543Y406179D01*
X281070Y403858D01*
X278749Y400385D01*
X277934Y396288D01*
X278749Y392191D01*
X281070Y388718D01*
X284543Y386397D01*
X288640Y385582D01*
X292737Y386397D01*
X296210Y388718D01*
X296840Y389661D01*
X310967D01*
X313373Y387255D01*
Y379785D01*
X312250Y377250D01*
X297750D01*
X296210Y378458D01*
X292737Y380779D01*
X288640Y381594D01*
X284543Y380779D01*
X281070Y378458D01*
X280781Y378025D01*
X150668D01*
X126802Y401891D01*
X128280Y404656D01*
X130000Y404314D01*
X133707Y405051D01*
X134306Y405452D01*
X127879Y411879D01*
X130000Y414000D01*
D01*
X127879Y411879D01*
X121452Y418306D01*
X121051Y417707D01*
X120314Y414000D01*
X120656Y412280D01*
X117891Y410802D01*
X115204Y413489D01*
X115306Y414000D01*
X114491Y418097D01*
X112170Y421570D01*
X110887Y422427D01*
Y460000D01*
X110344Y462731D01*
X108797Y465047D01*
X106481Y466594D01*
X103750Y467137D01*
X101019Y466594D01*
X98703Y465047D01*
X97156Y462731D01*
X96613Y460000D01*
Y420946D01*
X94709Y418097D01*
X93894Y414000D01*
X94709Y409903D01*
X97030Y406430D01*
X100503Y404109D01*
X104600Y403294D01*
X105111Y403396D01*
X142665Y365841D01*
X144981Y364294D01*
X147712Y363751D01*
X280781D01*
X281070Y363318D01*
X284543Y360997D01*
X288640Y360182D01*
X291452Y360742D01*
X292930Y357977D01*
X290731Y355778D01*
X288640Y356194D01*
X284543Y355379D01*
X281070Y353058D01*
X278749Y349585D01*
X277934Y345488D01*
X278749Y341391D01*
X281070Y337918D01*
X284543Y335597D01*
X288640Y334782D01*
X289151Y334884D01*
X291675Y332360D01*
X290527Y329588D01*
X283383D01*
X290761Y322209D01*
X288640Y320088D01*
X290761Y317967D01*
X283383Y310588D01*
X296003D01*
Y275704D01*
X295863Y275000D01*
X296406Y272269D01*
X297953Y269953D01*
X303453Y264453D01*
X305769Y262906D01*
X308500Y262363D01*
X342348D01*
X342522Y261488D01*
X344511Y258511D01*
X357824Y245199D01*
Y170000D01*
Y162585D01*
X355052Y161437D01*
X340604Y175884D01*
X340627Y176000D01*
X340123Y178536D01*
X338686Y180686D01*
X336536Y182123D01*
X334000Y182627D01*
X331464Y182123D01*
X329314Y180686D01*
X327877Y178536D01*
X327373Y176000D01*
X327877Y173464D01*
X329314Y171314D01*
X331464Y169877D01*
X334000Y169373D01*
X334116Y169396D01*
X353652Y149860D01*
X352504Y147088D01*
X346400D01*
X343582Y149907D01*
X343600Y150000D01*
X343096Y152536D01*
X341659Y154686D01*
X339509Y156123D01*
X336973Y156627D01*
X334437Y156123D01*
X332286Y154686D01*
X330850Y152536D01*
X330418Y150364D01*
X329850Y150477D01*
X327314Y149973D01*
X325163Y148536D01*
X325111Y148457D01*
X322125Y148163D01*
X303588Y166700D01*
Y172248D01*
X303686Y172314D01*
X305123Y174464D01*
X305627Y177000D01*
X305123Y179536D01*
X303686Y181686D01*
X302089Y182753D01*
X301397Y185104D01*
X301361Y185618D01*
X303592Y187876D01*
X306000Y187750D01*
Y187750D01*
X322000D01*
Y206250D01*
X306000D01*
Y204137D01*
X302000D01*
X299269Y203594D01*
X296953Y202047D01*
X272953Y178047D01*
X271406Y175731D01*
X270863Y173000D01*
Y130000D01*
X271406Y127269D01*
X272953Y124953D01*
X273632Y124500D01*
X272722Y121500D01*
X257500D01*
Y100500D01*
X278500D01*
Y119937D01*
X278500Y121500D01*
X280712Y123402D01*
X280731Y123406D01*
X283047Y124953D01*
X284594Y127269D01*
X285137Y130000D01*
Y170044D01*
X289775Y174682D01*
X290896Y174603D01*
X293247Y173911D01*
X294314Y172314D01*
X294412Y172248D01*
Y164800D01*
X294761Y163044D01*
X295756Y161556D01*
X325062Y132249D01*
X323149Y129919D01*
X321097Y131291D01*
X317000Y132106D01*
X312903Y131291D01*
X309430Y128970D01*
X307109Y125497D01*
X306294Y121400D01*
X307109Y117303D01*
X309430Y113830D01*
X312903Y111509D01*
X317000Y110694D01*
X321097Y111509D01*
X324570Y113830D01*
X326891Y117303D01*
X327706Y121400D01*
X326891Y125497D01*
X325519Y127549D01*
X327850Y129462D01*
X332394Y124917D01*
X331694Y121400D01*
X332509Y117303D01*
X334830Y113830D01*
X338303Y111509D01*
X342400Y110694D01*
X346497Y111509D01*
X349970Y113830D01*
X352291Y117303D01*
X352575Y118730D01*
X354411Y120183D01*
X355180Y120598D01*
X357521Y120133D01*
X359750D01*
Y117750D01*
X388250D01*
X389383Y115219D01*
Y107000D01*
X389500Y106409D01*
Y98500D01*
X401500D01*
Y106409D01*
X401618Y107000D01*
Y115211D01*
X403250Y117750D01*
X405836Y118750D01*
X412007D01*
X407879Y122879D01*
X412121Y127121D01*
X416250Y122992D01*
Y129912D01*
X416250Y131250D01*
X418562Y132912D01*
X423000D01*
X424756Y133261D01*
X426244Y134256D01*
X452489Y160500D01*
X462000D01*
Y167500D01*
Y178500D01*
X446000D01*
Y177588D01*
X441000D01*
Y178500D01*
X425000D01*
Y177588D01*
X419000D01*
Y178500D01*
X403000D01*
Y177588D01*
X399000D01*
X397244Y177239D01*
X395764Y176250D01*
X376176D01*
Y249000D01*
X376166Y249054D01*
X378069Y251373D01*
X448737D01*
X454306Y245804D01*
X454245Y245500D01*
X455254Y240428D01*
X458128Y236127D01*
X462428Y233254D01*
X467500Y232245D01*
X472572Y233254D01*
X476872Y236127D01*
X478707Y238873D01*
X521293D01*
X523128Y236127D01*
X527428Y233254D01*
X532500Y232245D01*
X537572Y233254D01*
X541872Y236127D01*
X543707Y238873D01*
X569293D01*
X571128Y236127D01*
X575428Y233254D01*
X580500Y232245D01*
X585572Y233254D01*
X589873Y236127D01*
X591707Y238873D01*
X634293D01*
X636128Y236127D01*
X640428Y233254D01*
X645500Y232245D01*
X650572Y233254D01*
X654873Y236127D01*
X657746Y240428D01*
X658755Y245500D01*
X657746Y250572D01*
X654873Y254872D01*
X650572Y257746D01*
X645500Y258755D01*
X640428Y257746D01*
X636128Y254872D01*
X634293Y252127D01*
X591707D01*
X589873Y254872D01*
X585572Y257746D01*
X580500Y258755D01*
X575428Y257746D01*
X571128Y254872D01*
X569293Y252127D01*
X543707D01*
X541872Y254872D01*
X537572Y257746D01*
X532500Y258755D01*
X527428Y257746D01*
X523128Y254872D01*
X521293Y252127D01*
X478707D01*
X476872Y254872D01*
X472572Y257746D01*
X467500Y258755D01*
X462428Y257746D01*
X461637Y257218D01*
X456169Y262686D01*
X454019Y264123D01*
X451482Y264627D01*
X364350D01*
X360176Y268801D01*
Y273793D01*
X360585Y274190D01*
X363176Y275397D01*
X365103Y274109D01*
X369200Y273294D01*
X373297Y274109D01*
X376770Y276430D01*
X379091Y279903D01*
X379906Y284000D01*
X379091Y288097D01*
X376770Y291570D01*
X373297Y293891D01*
X373250Y293900D01*
Y302008D01*
X369121Y297879D01*
X364879Y302121D01*
X369007Y306250D01*
X360750D01*
X360176Y309012D01*
Y322449D01*
X384727Y347000D01*
X409250D01*
Y369000D01*
X399176D01*
Y371000D01*
Y425199D01*
X428489Y454511D01*
X430478Y457488D01*
X431176Y461000D01*
X430478Y464512D01*
X428489Y467489D01*
X425512Y469478D01*
X422000Y470176D01*
D02*
G37*
G36*
X60485Y289147D02*
X56047Y288562D01*
X51912Y286849D01*
X50761Y285966D01*
X60485Y276243D01*
X70209Y285967D01*
X69058Y286849D01*
X64923Y288562D01*
X60485Y289147D01*
D02*
G37*
G36*
X445400Y279757D02*
X440143Y274500D01*
X450657D01*
X445400Y279757D01*
D02*
G37*
G36*
X420000D02*
X415694Y275452D01*
X416293Y275051D01*
X420000Y274314D01*
X423707Y275051D01*
X424306Y275452D01*
X420000Y279757D01*
D02*
G37*
G36*
X394600Y294706D02*
X390503Y293891D01*
X387030Y291570D01*
X384709Y288097D01*
X383894Y284000D01*
X384709Y279903D01*
X387030Y276430D01*
X390503Y274109D01*
X394600Y273294D01*
X398697Y274109D01*
X402170Y276430D01*
X404491Y279903D01*
X405306Y284000D01*
X404491Y288097D01*
X402170Y291570D01*
X398697Y293891D01*
X394600Y294706D01*
D02*
G37*
G36*
X46518Y281724D02*
X45635Y280573D01*
X43923Y276438D01*
X43338Y272000D01*
X43923Y267562D01*
X45635Y263427D01*
X46518Y262276D01*
X56242Y272000D01*
X46518Y281724D01*
D02*
G37*
G36*
X74451Y281724D02*
X64728Y272000D01*
X74451Y262276D01*
X75334Y263427D01*
X77047Y267562D01*
X77632Y272000D01*
X77047Y276438D01*
X75334Y280573D01*
X74451Y281724D01*
D02*
G37*
G36*
X60485Y267757D02*
X50761Y258034D01*
X51912Y257150D01*
X56047Y255438D01*
X60485Y254853D01*
X64923Y255438D01*
X69058Y257150D01*
X70209Y258033D01*
X60485Y267757D01*
D02*
G37*
G36*
X272515Y290000D02*
X254515D01*
X245515Y281000D01*
Y263000D01*
X254515Y254000D01*
X272515D01*
X281515Y263000D01*
Y281000D01*
X272515Y290000D01*
D02*
G37*
G36*
X401000Y230706D02*
X396903Y229891D01*
X393430Y227570D01*
X391109Y224097D01*
X390294Y220000D01*
X391109Y215903D01*
X393430Y212430D01*
X396903Y210109D01*
X401000Y209294D01*
X405097Y210109D01*
X408570Y212430D01*
X410891Y215903D01*
X411706Y220000D01*
X410891Y224097D01*
X408570Y227570D01*
X405097Y229891D01*
X401000Y230706D01*
D02*
G37*
G36*
X645500Y213755D02*
X640428Y212746D01*
X636128Y209872D01*
X634634Y207637D01*
X591366D01*
X589873Y209872D01*
X585572Y212746D01*
X580500Y213755D01*
X575428Y212746D01*
X571128Y209872D01*
X568254Y205572D01*
X567245Y200500D01*
X568254Y195428D01*
X571128Y191127D01*
X575428Y188254D01*
X580500Y187245D01*
X585572Y188254D01*
X589873Y191127D01*
X591366Y193363D01*
X634634D01*
X636128Y191127D01*
X640428Y188254D01*
X645500Y187245D01*
X650572Y188254D01*
X654873Y191127D01*
X657746Y195428D01*
X658755Y200500D01*
X657746Y205572D01*
X654873Y209872D01*
X650572Y212746D01*
X645500Y213755D01*
D02*
G37*
G36*
X532500D02*
X527428Y212746D01*
X523128Y209872D01*
X521634Y207637D01*
X478366D01*
X476872Y209872D01*
X472572Y212746D01*
X467500Y213755D01*
X462428Y212746D01*
X458128Y209872D01*
X455254Y205572D01*
X454245Y200500D01*
X455254Y195428D01*
X458128Y191127D01*
X462428Y188254D01*
X467500Y187245D01*
X472572Y188254D01*
X476872Y191127D01*
X478366Y193363D01*
X521634D01*
X523128Y191127D01*
X527428Y188254D01*
X532500Y187245D01*
X537572Y188254D01*
X541872Y191127D01*
X544746Y195428D01*
X545755Y200500D01*
X544746Y205572D01*
X541872Y209872D01*
X537572Y212746D01*
X532500Y213755D01*
D02*
G37*
G36*
X336757Y205250D02*
X331243D01*
X334000Y202493D01*
X336757Y205250D01*
D02*
G37*
G36*
X334000Y198250D02*
X332750Y197000D01*
X334000Y195750D01*
X335250Y197000D01*
X334000Y198250D01*
D02*
G37*
G36*
X327000Y201007D02*
Y192993D01*
X331007Y197000D01*
X327000Y201007D01*
D02*
G37*
G36*
X341000Y201007D02*
X336993Y197000D01*
X341000Y192993D01*
Y201007D01*
D02*
G37*
G36*
X334000Y191507D02*
X331243Y188750D01*
X336757D01*
X334000Y191507D01*
D02*
G37*
G36*
X411500Y205100D02*
X390500D01*
Y184100D01*
X411500D01*
Y205100D01*
D02*
G37*
G36*
X415257Y114500D02*
X413743D01*
X414500Y113743D01*
X415257Y114500D01*
D02*
G37*
G36*
X419500Y110257D02*
X416621Y107379D01*
X414500Y109500D01*
X412379Y107379D01*
X409500Y110257D01*
Y103743D01*
X412379Y106621D01*
X414500Y104500D01*
X416621Y106621D01*
X419500Y103743D01*
Y110257D01*
D02*
G37*
G36*
X490400Y122706D02*
X486303Y121891D01*
X482830Y119570D01*
X480509Y116097D01*
X479694Y112000D01*
X480509Y107903D01*
X482830Y104430D01*
X486303Y102109D01*
X490400Y101294D01*
X494497Y102109D01*
X497970Y104430D01*
X500291Y107903D01*
X501106Y112000D01*
X500291Y116097D01*
X497970Y119570D01*
X494497Y121891D01*
X490400Y122706D01*
D02*
G37*
G36*
X414500Y100257D02*
X413743Y99500D01*
X415257D01*
X414500Y100257D01*
D02*
G37*
G36*
X475500Y122500D02*
X454500D01*
Y110152D01*
X433466Y89117D01*
X411000D01*
Y91500D01*
X399000D01*
Y83591D01*
X398882Y83000D01*
X399000Y82409D01*
Y74500D01*
X411000D01*
Y76882D01*
X436000D01*
X438341Y77348D01*
X440326Y78674D01*
X463152Y101500D01*
X475500D01*
Y122500D01*
D02*
G37*
G36*
X342400Y106706D02*
X338303Y105891D01*
X334830Y103570D01*
X332509Y100097D01*
X331694Y96000D01*
X332509Y91903D01*
X334830Y88430D01*
X338303Y86109D01*
X342400Y85294D01*
X346497Y86109D01*
X349970Y88430D01*
X352291Y91903D01*
X353106Y96000D01*
X352291Y100097D01*
X349970Y103570D01*
X346497Y105891D01*
X342400Y106706D01*
D02*
G37*
G36*
X317000D02*
X312903Y105891D01*
X309430Y103570D01*
X307109Y100097D01*
X306294Y96000D01*
X307109Y91903D01*
X309430Y88430D01*
X312903Y86109D01*
X317000Y85294D01*
X321097Y86109D01*
X324570Y88430D01*
X326891Y91903D01*
X327706Y96000D01*
X326891Y100097D01*
X324570Y103570D01*
X321097Y105891D01*
X317000Y106706D01*
D02*
G37*
G36*
X644000Y92276D02*
X635646Y91176D01*
X627862Y87952D01*
X623578Y84665D01*
X644000Y64243D01*
X664422Y84665D01*
X660138Y87952D01*
X652354Y91176D01*
X644000Y92276D01*
D02*
G37*
G36*
X59000D02*
X50646Y91176D01*
X42862Y87952D01*
X38578Y84665D01*
X59000Y64243D01*
X79422Y84665D01*
X75138Y87952D01*
X67354Y91176D01*
X59000Y92276D01*
D02*
G37*
G36*
X342400Y81306D02*
X338303Y80491D01*
X334830Y78170D01*
X332509Y74697D01*
X331694Y70600D01*
X332509Y66503D01*
X334830Y63030D01*
X338303Y60709D01*
X342400Y59894D01*
X346497Y60709D01*
X349970Y63030D01*
X352291Y66503D01*
X353106Y70600D01*
X352291Y74697D01*
X349970Y78170D01*
X346497Y80491D01*
X342400Y81306D01*
D02*
G37*
G36*
X317000D02*
X312903Y80491D01*
X309430Y78170D01*
X307109Y74697D01*
X306294Y70600D01*
X307109Y66503D01*
X309430Y63030D01*
X312903Y60709D01*
X317000Y59894D01*
X321097Y60709D01*
X324570Y63030D01*
X326891Y66503D01*
X327706Y70600D01*
X326891Y74697D01*
X324570Y78170D01*
X321097Y80491D01*
X317000Y81306D01*
D02*
G37*
G36*
X322257Y54700D02*
X311743D01*
X317000Y49443D01*
X322257Y54700D01*
D02*
G37*
G36*
X159500Y137755D02*
X154428Y136746D01*
X150127Y133872D01*
X147254Y129572D01*
X146245Y124500D01*
X147254Y119428D01*
X150127Y115127D01*
X153383Y112953D01*
Y71047D01*
X150127Y68872D01*
X147254Y64572D01*
X146245Y59500D01*
X147254Y54428D01*
X150127Y50128D01*
X154428Y47254D01*
X159500Y46245D01*
X164572Y47254D01*
X168873Y50128D01*
X171746Y54428D01*
X172755Y59500D01*
X171746Y64572D01*
X168873Y68872D01*
X165618Y71047D01*
Y112953D01*
X168873Y115127D01*
X171746Y119428D01*
X172755Y124500D01*
X171746Y129572D01*
X168873Y133872D01*
X164572Y136746D01*
X159500Y137755D01*
D02*
G37*
G36*
X114500D02*
X109428Y136746D01*
X105127Y133872D01*
X102254Y129572D01*
X101245Y124500D01*
X102254Y119428D01*
X105127Y115127D01*
X107363Y113634D01*
Y70366D01*
X105127Y68872D01*
X102254Y64572D01*
X101245Y59500D01*
X102254Y54428D01*
X105127Y50128D01*
X109428Y47254D01*
X114500Y46245D01*
X119572Y47254D01*
X123872Y50128D01*
X126746Y54428D01*
X127755Y59500D01*
X126746Y64572D01*
X123872Y68872D01*
X121637Y70366D01*
Y113634D01*
X123872Y115127D01*
X126746Y119428D01*
X127755Y124500D01*
X126746Y129572D01*
X123872Y133872D01*
X119572Y136746D01*
X114500Y137755D01*
D02*
G37*
G36*
X83665Y80422D02*
X63243Y60000D01*
X83665Y39578D01*
X86952Y43862D01*
X90176Y51646D01*
X91276Y60000D01*
X90176Y68354D01*
X86952Y76138D01*
X83665Y80422D01*
D02*
G37*
G36*
X668665D02*
X648243Y60000D01*
X668665Y39578D01*
X671952Y43862D01*
X675176Y51646D01*
X676276Y60000D01*
X675176Y68354D01*
X671952Y76138D01*
X668665Y80422D01*
D02*
G37*
G36*
X34335D02*
X31048Y76138D01*
X27824Y68354D01*
X26724Y60000D01*
X27824Y51646D01*
X31048Y43862D01*
X34335Y39578D01*
X54757Y60000D01*
X34335Y80422D01*
D02*
G37*
G36*
X619335D02*
X616048Y76138D01*
X612824Y68354D01*
X611724Y60000D01*
X612824Y51646D01*
X616048Y43862D01*
X619335Y39578D01*
X639757Y60000D01*
X619335Y80422D01*
D02*
G37*
G36*
X200000Y122627D02*
X197464Y122123D01*
X195314Y120686D01*
X193877Y118536D01*
X193373Y116000D01*
X193877Y113464D01*
X195314Y111314D01*
X197464Y109877D01*
X200000Y109373D01*
X202536Y109877D01*
X202544Y109882D01*
X216866D01*
X244677Y82072D01*
X243529Y79300D01*
X229500D01*
Y58300D01*
X242265D01*
X243404Y55580D01*
X241723Y53763D01*
X240000Y54106D01*
X235903Y53291D01*
X232430Y50970D01*
X230109Y47497D01*
X229294Y43400D01*
X230109Y39303D01*
X232430Y35830D01*
X235903Y33509D01*
X240000Y32694D01*
X244097Y33509D01*
X247570Y35830D01*
X249000Y37970D01*
X252000Y37060D01*
Y29243D01*
X257879Y35121D01*
X260000Y33000D01*
X262000Y35000D01*
X257879Y39121D01*
X263757Y45000D01*
X254894D01*
X253652Y48000D01*
X266200Y60549D01*
X282882Y43866D01*
Y38000D01*
X283000Y37409D01*
Y24000D01*
X292102D01*
X294300Y23563D01*
X327900D01*
X330631Y24106D01*
X332947Y25653D01*
X341889Y34596D01*
X342400Y34494D01*
X346497Y35309D01*
X349970Y37630D01*
X352291Y41103D01*
X353106Y45200D01*
X352291Y49297D01*
X349970Y52770D01*
X346497Y55091D01*
X342400Y55906D01*
X338303Y55091D01*
X334830Y52770D01*
X332509Y49297D01*
X331694Y45200D01*
X331796Y44689D01*
X329272Y42165D01*
X326500Y43313D01*
Y50458D01*
X319121Y43079D01*
X317000Y45200D01*
X314879Y43079D01*
X307500Y50457D01*
Y37837D01*
X301000D01*
Y46000D01*
X295117D01*
Y46400D01*
X294652Y48741D01*
X293326Y50726D01*
X270526Y73526D01*
X270526Y73526D01*
X223726Y120326D01*
X221741Y121652D01*
X219400Y122118D01*
X202544D01*
X202536Y122123D01*
X200000Y122627D01*
D02*
G37*
G36*
X268000Y40757D02*
X262243Y35000D01*
X268000Y29243D01*
Y40757D01*
D02*
G37*
G36*
X644000Y55757D02*
X623578Y35335D01*
X627862Y32048D01*
X635646Y28824D01*
X644000Y27724D01*
X652354Y28824D01*
X660138Y32048D01*
X664422Y35335D01*
X644000Y55757D01*
D02*
G37*
G36*
X59000D02*
X38578Y35335D01*
X42862Y32048D01*
X50646Y28824D01*
X59000Y27724D01*
X67354Y28824D01*
X75138Y32048D01*
X79422Y35335D01*
X59000Y55757D01*
D02*
G37*
G36*
X260000Y28757D02*
X256243Y25000D01*
X263757D01*
X260000Y28757D01*
D02*
G37*
G36*
X240000Y27686D02*
X236293Y26949D01*
X235694Y26548D01*
X240000Y22243D01*
X244306Y26549D01*
X243707Y26949D01*
X240000Y27686D01*
D02*
G37*
G36*
X231451Y22306D02*
X231051Y21707D01*
X230314Y18000D01*
X231051Y14293D01*
X231451Y13694D01*
X235757Y18000D01*
X231451Y22306D01*
D02*
G37*
G36*
X248548Y22306D02*
X244243Y18000D01*
X248548Y13694D01*
X248949Y14293D01*
X249686Y18000D01*
X248949Y21707D01*
X248548Y22306D01*
D02*
G37*
G36*
X240000Y13757D02*
X235694Y9452D01*
X236293Y9051D01*
X240000Y8314D01*
X243707Y9051D01*
X244306Y9452D01*
X240000Y13757D01*
D02*
G37*
%LPD*%
D45*
X574000Y541000D02*
D03*
Y527000D02*
D03*
X305000Y370000D02*
D03*
Y356000D02*
D03*
X320000Y370000D02*
D03*
Y356000D02*
D03*
D46*
X367000Y300000D02*
D03*
X353000D02*
D03*
X410000Y125000D02*
D03*
X396000D02*
D03*
X367000D02*
D03*
X381000D02*
D03*
Y169000D02*
D03*
X395000D02*
D03*
D57*
X395500Y107000D02*
D03*
X414500D02*
D03*
X405000Y83000D02*
D03*
D64*
X390500Y358000D02*
D03*
X439500D02*
D03*
D66*
X574000Y505000D02*
X574000Y505000D01*
Y527000D01*
X574000Y527000D01*
X219400Y116000D02*
X266200Y69200D01*
X200000Y116000D02*
X219400D01*
X266200Y69200D02*
X289000Y46400D01*
X240000Y43400D02*
X240400D01*
X266200Y69200D01*
X289000Y38000D02*
Y46400D01*
Y38000D02*
X292000Y35000D01*
X381000Y125000D02*
X396000D01*
X365750Y126250D02*
X367000Y125000D01*
X357521Y126250D02*
X365750D01*
X355771Y128000D02*
X357521Y126250D01*
X355500Y128000D02*
X355771D01*
X436000Y83000D02*
X465000Y112000D01*
X405000Y83000D02*
X436000D01*
X159500Y59500D02*
Y124500D01*
X395500Y107000D02*
Y123500D01*
X396000Y124000D01*
X439500Y358000D02*
X447250D01*
D67*
X320000Y370000D02*
X327750Y362250D01*
Y282832D02*
Y362250D01*
X326000Y281082D02*
X327750Y282832D01*
X326000Y280000D02*
Y281082D01*
X288640Y396288D02*
X289928Y395000D01*
X399000Y173000D02*
X411000D01*
X395000Y169000D02*
X399000Y173000D01*
X334814Y137500D02*
X423000D01*
X344500Y142500D02*
X407000D01*
X337000Y150000D02*
X344500Y142500D01*
X336973Y150000D02*
X337000D01*
X329850Y142464D02*
X334814Y137500D01*
X329850Y142464D02*
Y143850D01*
X299000Y164800D02*
X342400Y121400D01*
X299000Y164800D02*
Y177000D01*
X451500Y166000D02*
X454000D01*
X423000Y137500D02*
X451500Y166000D01*
X411000Y165000D02*
X411000Y165000D01*
X430500Y166000D02*
X433000D01*
X411000Y159000D02*
Y165000D01*
X407000Y142500D02*
X430500Y166000D01*
X399500Y147500D02*
X411000Y159000D01*
X411000Y165000D02*
Y166000D01*
X362500Y147500D02*
X399500D01*
X334000Y176000D02*
X362500Y147500D01*
X411000Y173000D02*
X433000D01*
X454000D02*
X454000Y173000D01*
X433000Y173000D02*
X454000D01*
X340700Y121400D02*
X342400D01*
D68*
X599400Y482400D02*
Y505000D01*
X598000Y481000D02*
X599400Y482400D01*
X414500Y107000D02*
Y120500D01*
X410000Y125000D02*
X414500Y120500D01*
X361000Y256000D02*
X363000Y258000D01*
X463982Y245500D02*
X467500D01*
X451482Y258000D02*
X463982Y245500D01*
X363000Y258000D02*
X451482D01*
X320000Y370000D02*
Y390000D01*
X288640Y396288D02*
X313712D01*
X320000Y390000D01*
X304556Y370444D02*
X305000Y370000D01*
X289084Y370444D02*
X304556D01*
X288640Y370888D02*
X289084Y370444D01*
X370000Y169000D02*
X381000D01*
X367000Y170000D02*
X370000Y173000D01*
X580500Y245500D02*
X645500D01*
X532500D02*
X580500D01*
X467500D02*
X532500D01*
X659000Y434000D02*
X691000D01*
D69*
X327900Y30700D02*
X342400Y45200D01*
X294300Y30700D02*
X327900D01*
X292000Y33000D02*
X294300Y30700D01*
X292000Y33000D02*
Y35000D01*
X541490Y472490D02*
X545490D01*
X537500Y468500D02*
X541490Y472490D01*
X155400Y414000D02*
Y434400D01*
X159000Y438000D01*
Y440000D01*
X221000D02*
X244000Y417000D01*
X159000Y440000D02*
X221000D01*
X303140Y274860D02*
Y330988D01*
Y274860D02*
X308500Y269500D01*
X303000Y275000D02*
X303140Y274860D01*
X308500Y269500D02*
X346500D01*
X305000Y356000D02*
X320000D01*
X301046D02*
X305000D01*
X290534Y345488D02*
X301046Y356000D01*
X288640Y345488D02*
X290534D01*
X346500Y269500D02*
X351000Y274000D01*
X580500Y200500D02*
X645500D01*
X467500D02*
X532500D01*
X278000Y130000D02*
Y173000D01*
X302000Y197000D01*
X114500Y59500D02*
Y124500D01*
X288640Y345488D02*
X303140Y330988D01*
X103750Y414850D02*
Y460000D01*
Y414850D02*
X147712Y370888D01*
X288640D01*
X302000Y197000D02*
X314000D01*
D71*
X351000Y265000D02*
X367000Y249000D01*
X351000Y274000D02*
Y326250D01*
Y265000D02*
Y274000D01*
X367000Y170000D02*
Y249000D01*
Y158000D02*
Y170000D01*
Y157000D02*
Y158000D01*
X690000Y421000D02*
X709000D01*
X351000Y326250D02*
X382250Y357500D01*
X699500Y422000D02*
Y432000D01*
X390000Y371000D02*
Y429000D01*
X422000Y461000D01*
X390000Y358500D02*
Y371000D01*
Y358500D02*
X390500Y358000D01*
X382250Y357500D02*
X390000D01*
D73*
X125000Y476000D02*
X159000Y442000D01*
X116000Y485000D02*
X125000Y476000D01*
X54000Y458000D02*
X72000Y476000D01*
X125000D01*
X159000Y440000D02*
Y442000D01*
X116000Y485000D02*
Y514000D01*
D74*
X507000Y434000D02*
X545490Y472490D01*
X537500Y468500D02*
Y525000D01*
X598000Y481000D02*
X681071D01*
X681321Y480750D01*
X696000D01*
X563000Y481000D02*
X598000D01*
X554000D02*
X563000D01*
X545490Y472490D02*
X554000Y481000D01*
X503000Y434000D02*
X507000D01*
D75*
X268000Y111000D02*
D03*
X240000Y68800D02*
D03*
X708000Y342400D02*
D03*
X288640Y320088D02*
D03*
X401000Y194600D02*
D03*
X317000Y45200D02*
D03*
D76*
X240000Y43400D02*
D03*
Y18000D02*
D03*
X490400Y112000D02*
D03*
X574000Y505000D02*
D03*
X708000Y317000D02*
D03*
X369200Y284000D02*
D03*
X394600D02*
D03*
X420000D02*
D03*
X288640Y396288D02*
D03*
Y370888D02*
D03*
Y345488D02*
D03*
X401000Y220000D02*
D03*
X79200Y414000D02*
D03*
X104600D02*
D03*
X130000D02*
D03*
X342400Y121400D02*
D03*
X317000D02*
D03*
X342400Y96000D02*
D03*
X317000D02*
D03*
X342400Y70600D02*
D03*
X317000D02*
D03*
X342400Y45200D02*
D03*
D77*
X465000Y112000D02*
D03*
X599400Y505000D02*
D03*
X445400Y284000D02*
D03*
X155400Y414000D02*
D03*
D78*
X644000Y540000D02*
D03*
X59000D02*
D03*
X644000Y60000D02*
D03*
X59000D02*
D03*
D79*
X580500Y200500D02*
D03*
Y245500D02*
D03*
X645500Y200500D02*
D03*
Y245500D02*
D03*
X159500Y59500D02*
D03*
X114500D02*
D03*
X159500Y124500D02*
D03*
X114500D02*
D03*
X467500Y200500D02*
D03*
Y245500D02*
D03*
X532500Y200500D02*
D03*
Y245500D02*
D03*
D80*
X204000Y417000D02*
D03*
X244000D02*
D03*
D81*
X60485Y272000D02*
D03*
D82*
X263515D02*
D03*
D83*
X694000Y559000D02*
D03*
X707500Y532000D02*
D03*
X694000Y505000D02*
D03*
X707500Y370000D02*
D03*
X694000Y289000D02*
D03*
X707500Y262000D02*
D03*
X694000Y235000D02*
D03*
X707500Y208000D02*
D03*
X694000Y181000D02*
D03*
X707500Y154000D02*
D03*
X694000Y127000D02*
D03*
X707500Y100000D02*
D03*
X694000Y73000D02*
D03*
X707500Y46000D02*
D03*
X694000Y19000D02*
D03*
X680500Y532000D02*
D03*
X667000Y505000D02*
D03*
Y397000D02*
D03*
X680500Y370000D02*
D03*
X667000Y289000D02*
D03*
X680500Y262000D02*
D03*
X667000Y235000D02*
D03*
X680500Y208000D02*
D03*
X667000Y181000D02*
D03*
X680500Y154000D02*
D03*
X667000Y127000D02*
D03*
X680500Y100000D02*
D03*
Y46000D02*
D03*
X667000Y19000D02*
D03*
X640000Y397000D02*
D03*
X653500Y370000D02*
D03*
Y262000D02*
D03*
X640000Y181000D02*
D03*
X653500Y154000D02*
D03*
X640000Y127000D02*
D03*
X653500Y100000D02*
D03*
X640000Y19000D02*
D03*
X613000Y559000D02*
D03*
X626500Y370000D02*
D03*
X613000Y235000D02*
D03*
Y181000D02*
D03*
X626500Y154000D02*
D03*
X613000Y127000D02*
D03*
X626500Y100000D02*
D03*
X613000Y19000D02*
D03*
X586000Y559000D02*
D03*
X599500Y532000D02*
D03*
X586000Y181000D02*
D03*
X599500Y154000D02*
D03*
X586000Y127000D02*
D03*
X599500Y100000D02*
D03*
X586000Y73000D02*
D03*
X599500Y46000D02*
D03*
X586000Y19000D02*
D03*
X559000Y559000D02*
D03*
Y505000D02*
D03*
X572500Y154000D02*
D03*
X559000Y127000D02*
D03*
X572500Y100000D02*
D03*
X559000Y73000D02*
D03*
X572500Y46000D02*
D03*
X559000Y19000D02*
D03*
X532000Y559000D02*
D03*
Y289000D02*
D03*
X545500Y262000D02*
D03*
X532000Y181000D02*
D03*
X545500Y154000D02*
D03*
X532000Y127000D02*
D03*
X545500Y100000D02*
D03*
X532000Y73000D02*
D03*
X545500Y46000D02*
D03*
X532000Y19000D02*
D03*
X505000Y559000D02*
D03*
X518500Y532000D02*
D03*
X505000Y505000D02*
D03*
X518500Y478000D02*
D03*
X505000Y397000D02*
D03*
Y289000D02*
D03*
X518500Y262000D02*
D03*
X505000Y235000D02*
D03*
Y181000D02*
D03*
X518500Y154000D02*
D03*
X505000Y127000D02*
D03*
X518500Y100000D02*
D03*
X505000Y73000D02*
D03*
X518500Y46000D02*
D03*
X505000Y19000D02*
D03*
X478000Y559000D02*
D03*
X491500Y532000D02*
D03*
X478000Y397000D02*
D03*
Y289000D02*
D03*
X491500Y262000D02*
D03*
X478000Y181000D02*
D03*
X491500Y154000D02*
D03*
X478000Y127000D02*
D03*
Y73000D02*
D03*
X491500Y46000D02*
D03*
X478000Y19000D02*
D03*
X451000Y559000D02*
D03*
Y505000D02*
D03*
X464500Y424000D02*
D03*
X451000Y397000D02*
D03*
X464500Y370000D02*
D03*
Y262000D02*
D03*
X451000Y235000D02*
D03*
X464500Y154000D02*
D03*
X451000Y127000D02*
D03*
X464500Y46000D02*
D03*
X451000Y19000D02*
D03*
X424000Y559000D02*
D03*
X437500Y532000D02*
D03*
X424000Y505000D02*
D03*
X437500Y478000D02*
D03*
Y424000D02*
D03*
X424000Y397000D02*
D03*
Y343000D02*
D03*
Y235000D02*
D03*
X437500Y208000D02*
D03*
X424000Y127000D02*
D03*
X437500Y100000D02*
D03*
X424000Y19000D02*
D03*
X397000Y559000D02*
D03*
X410500Y532000D02*
D03*
X397000Y505000D02*
D03*
X410500Y478000D02*
D03*
Y424000D02*
D03*
X397000Y343000D02*
D03*
Y19000D02*
D03*
X370000Y559000D02*
D03*
X383500Y532000D02*
D03*
X370000Y505000D02*
D03*
X383500Y478000D02*
D03*
X370000Y451000D02*
D03*
Y397000D02*
D03*
Y19000D02*
D03*
X343000Y559000D02*
D03*
X356500Y532000D02*
D03*
X343000Y505000D02*
D03*
X356500Y478000D02*
D03*
X343000Y451000D02*
D03*
X356500Y424000D02*
D03*
X343000Y397000D02*
D03*
X356500Y370000D02*
D03*
X343000Y343000D02*
D03*
Y181000D02*
D03*
Y19000D02*
D03*
X316000Y559000D02*
D03*
X329500Y532000D02*
D03*
X316000Y505000D02*
D03*
X329500Y478000D02*
D03*
X316000Y451000D02*
D03*
X329500Y424000D02*
D03*
X316000Y181000D02*
D03*
Y19000D02*
D03*
X289000Y559000D02*
D03*
X302500Y532000D02*
D03*
X289000Y505000D02*
D03*
X302500Y478000D02*
D03*
X289000Y451000D02*
D03*
X302500Y424000D02*
D03*
Y208000D02*
D03*
X289000Y19000D02*
D03*
X262000Y559000D02*
D03*
X275500Y532000D02*
D03*
X262000Y505000D02*
D03*
X275500Y478000D02*
D03*
X262000Y451000D02*
D03*
Y397000D02*
D03*
Y343000D02*
D03*
X275500Y316000D02*
D03*
Y46000D02*
D03*
X262000Y19000D02*
D03*
X235000Y559000D02*
D03*
X248500Y532000D02*
D03*
X235000Y505000D02*
D03*
X248500Y478000D02*
D03*
X235000Y451000D02*
D03*
Y343000D02*
D03*
X248500Y316000D02*
D03*
X235000Y289000D02*
D03*
X208000Y559000D02*
D03*
X221500Y532000D02*
D03*
X208000Y505000D02*
D03*
X221500Y478000D02*
D03*
X208000Y451000D02*
D03*
X221500Y424000D02*
D03*
X208000Y397000D02*
D03*
Y343000D02*
D03*
Y289000D02*
D03*
Y19000D02*
D03*
X181000Y559000D02*
D03*
X194500Y532000D02*
D03*
X181000Y505000D02*
D03*
X194500Y478000D02*
D03*
X181000Y451000D02*
D03*
Y397000D02*
D03*
Y343000D02*
D03*
X194500Y316000D02*
D03*
X181000Y289000D02*
D03*
Y19000D02*
D03*
X154000Y559000D02*
D03*
X167500Y532000D02*
D03*
X154000Y505000D02*
D03*
X167500Y478000D02*
D03*
X154000Y397000D02*
D03*
Y343000D02*
D03*
X167500Y316000D02*
D03*
X154000Y289000D02*
D03*
Y19000D02*
D03*
X127000Y559000D02*
D03*
X140500Y532000D02*
D03*
Y478000D02*
D03*
Y424000D02*
D03*
X127000Y343000D02*
D03*
X140500Y316000D02*
D03*
X127000Y289000D02*
D03*
X140500Y262000D02*
D03*
Y100000D02*
D03*
X127000Y73000D02*
D03*
X140500Y46000D02*
D03*
X127000Y19000D02*
D03*
X100000Y559000D02*
D03*
X113500Y532000D02*
D03*
X100000Y397000D02*
D03*
X113500Y370000D02*
D03*
X100000Y343000D02*
D03*
X113500Y316000D02*
D03*
X100000Y289000D02*
D03*
X113500Y262000D02*
D03*
X100000Y235000D02*
D03*
Y73000D02*
D03*
Y19000D02*
D03*
X73000Y505000D02*
D03*
Y451000D02*
D03*
Y397000D02*
D03*
X86500Y370000D02*
D03*
X73000Y343000D02*
D03*
X86500Y316000D02*
D03*
X73000Y289000D02*
D03*
X86500Y262000D02*
D03*
X73000Y235000D02*
D03*
X86500Y208000D02*
D03*
X73000Y181000D02*
D03*
X86500Y100000D02*
D03*
X73000Y19000D02*
D03*
X46000Y505000D02*
D03*
Y451000D02*
D03*
X59500Y424000D02*
D03*
X46000Y397000D02*
D03*
X59500Y370000D02*
D03*
X46000Y343000D02*
D03*
X59500Y316000D02*
D03*
X46000Y289000D02*
D03*
Y235000D02*
D03*
X59500Y208000D02*
D03*
X46000Y181000D02*
D03*
X59500Y154000D02*
D03*
X46000Y127000D02*
D03*
X59500Y100000D02*
D03*
X46000Y19000D02*
D03*
X19000Y559000D02*
D03*
Y505000D02*
D03*
X32500Y478000D02*
D03*
X19000Y451000D02*
D03*
X32500Y424000D02*
D03*
X19000Y397000D02*
D03*
X32500Y370000D02*
D03*
X19000Y343000D02*
D03*
X32500Y316000D02*
D03*
X19000Y289000D02*
D03*
X32500Y262000D02*
D03*
X19000Y235000D02*
D03*
X32500Y208000D02*
D03*
X19000Y181000D02*
D03*
X32500Y154000D02*
D03*
X19000Y127000D02*
D03*
X32500Y100000D02*
D03*
X19000Y73000D02*
D03*
Y19000D02*
D03*
X563000Y481000D02*
D03*
X326000Y280000D02*
D03*
X380000Y158000D02*
D03*
X382000Y234000D02*
D03*
X361000Y255000D02*
D03*
X355500Y128000D02*
D03*
X329850Y143850D02*
D03*
X299000Y177000D02*
D03*
X278000Y130000D02*
D03*
X200000Y116000D02*
D03*
X303000Y275000D02*
D03*
X336973Y150000D02*
D03*
X503000Y434000D02*
D03*
X54000Y458000D02*
D03*
X116000Y514000D02*
D03*
X103750Y460000D02*
D03*
X309000Y223000D02*
D03*
X321000D02*
D03*
X332000D02*
D03*
X660000Y434000D02*
D03*
X343000Y223000D02*
D03*
X580000Y281000D02*
D03*
X552000D02*
D03*
X422000Y461000D02*
D03*
X390000Y371000D02*
D03*
X302000Y197000D02*
D03*
X334000Y176000D02*
D03*
X367000Y158000D02*
D03*
X346000Y197000D02*
D03*
D84*
X260000Y35000D02*
D03*
X292000D02*
D03*
X127000Y440000D02*
D03*
X159000D02*
D03*
D85*
X334000Y197000D02*
D03*
X314000D02*
D03*
D86*
X537500Y525000D02*
D03*
X470500D02*
D03*
D87*
X699000Y434250D02*
D03*
Y477750D02*
D03*
D88*
X433000Y173000D02*
D03*
Y166000D02*
D03*
X411000Y173000D02*
D03*
Y166000D02*
D03*
X454000Y173000D02*
D03*
Y166000D02*
D03*
M02*
