G04*
G04 #@! TF.GenerationSoftware,Altium Limited,Altium Designer,20.0.10 (225)*
G04*
G04 Layer_Physical_Order=1*
G04 Layer_Color=255*
%FSLAX44Y44*%
%MOMM*%
G71*
G01*
G75*
%ADD16R,0.4000X0.4500*%
%ADD17R,0.4500X0.4000*%
%ADD18R,0.3500X0.5000*%
%ADD45R,0.8500X0.8500*%
%ADD46R,0.8500X0.8500*%
%ADD47R,1.0000X1.6000*%
%ADD48R,1.1000X0.6000*%
%ADD49R,1.6500X0.3000*%
%ADD50R,1.2500X1.0000*%
%ADD51R,1.4000X0.4000*%
%ADD52R,1.6000X2.1000*%
%ADD53R,1.9000X1.8000*%
%ADD54R,1.9000X1.7500*%
%ADD55R,0.6000X1.1000*%
%ADD56R,4.1000X1.5200*%
%ADD57R,0.6000X1.1000*%
%ADD58R,5.5000X2.0000*%
%ADD59R,0.6500X0.9500*%
%ADD60R,1.6000X1.2000*%
%ADD61O,0.3000X1.4000*%
%ADD62O,1.4000X0.3000*%
%ADD63R,0.5000X1.0000*%
%ADD64R,3.1500X1.6000*%
%ADD65R,2.4000X2.6000*%
%ADD66C,0.6000*%
%ADD67C,0.3000*%
%ADD68C,0.7000*%
%ADD69C,0.8000*%
%ADD70C,0.9000*%
%ADD71C,1.2000*%
%ADD72C,0.5000*%
%ADD73C,0.4000*%
%ADD74C,1.6000*%
%ADD75R,1.5000X1.5000*%
%ADD76C,1.5000*%
%ADD77R,1.5000X1.5000*%
%ADD78C,6.0000*%
%ADD79C,2.0000*%
%ADD80C,1.8000*%
%ADD81C,3.0000*%
%ADD82P,3.2472X8X202.5*%
%ADD83C,0.7000*%
G36*
X715000Y595812D02*
X717224Y595369D01*
X719109Y594109D01*
X720369Y592224D01*
X720812Y590000D01*
X720922D01*
Y354296D01*
X717922Y352900D01*
X697500D01*
Y349537D01*
X646400D01*
X643669Y348994D01*
X641353Y347447D01*
X633157Y339250D01*
X628750Y339250D01*
X626164Y338250D01*
X625750Y338250D01*
X618993D01*
X623121Y334121D01*
X618879Y329879D01*
X614423Y334334D01*
X613500Y332500D01*
X611750Y332500D01*
X602743D01*
X605621Y329621D01*
X601379Y325379D01*
X598500Y328257D01*
Y326617D01*
X598483Y326573D01*
X597182Y325529D01*
X593605Y325762D01*
X589262Y330105D01*
X588500Y330614D01*
Y333500D01*
X572250D01*
Y336007D01*
X568121Y331879D01*
X566000Y334000D01*
X563879Y331879D01*
X559750Y336007D01*
Y327750D01*
X558750Y327250D01*
Y314098D01*
X556343D01*
X554392Y313710D01*
X552738Y312605D01*
X550395Y310262D01*
X549290Y308608D01*
X548902Y306657D01*
Y293093D01*
X549290Y291142D01*
X550395Y289488D01*
X552738Y287145D01*
X554392Y286040D01*
X556000Y285720D01*
Y275750D01*
X555000D01*
Y266750D01*
X557873D01*
X558522Y263488D01*
X560511Y260511D01*
X563488Y258522D01*
X567000Y257824D01*
X570145D01*
X571128Y254872D01*
X568254Y250572D01*
X567245Y245500D01*
X567724Y243096D01*
X561878Y237250D01*
X556750D01*
Y237250D01*
X556250D01*
Y237250D01*
X551122D01*
X545276Y243096D01*
X545755Y245500D01*
X544746Y250572D01*
X541872Y254872D01*
X537572Y257746D01*
X532500Y258755D01*
X527428Y257746D01*
X523128Y254872D01*
X520254Y250572D01*
X519245Y245500D01*
X520254Y240428D01*
X523128Y236127D01*
X527428Y233254D01*
X532500Y232245D01*
X536572Y233055D01*
X541750Y227878D01*
Y218843D01*
X535971Y213064D01*
X532500Y213755D01*
X527428Y212746D01*
X523128Y209872D01*
X520254Y205572D01*
X519245Y200500D01*
X520254Y195428D01*
X523128Y191127D01*
X527428Y188254D01*
X532500Y187245D01*
X537572Y188254D01*
X541872Y191127D01*
X544746Y195428D01*
X545755Y200500D01*
X545396Y202303D01*
X551843Y208750D01*
X556250D01*
Y208750D01*
X556750D01*
Y208750D01*
X561157D01*
X567604Y202303D01*
X567245Y200500D01*
X567770Y197863D01*
X544044Y174137D01*
X455232D01*
X454298Y176356D01*
X454231Y177137D01*
X464863Y187770D01*
X467500Y187245D01*
X472572Y188254D01*
X476872Y191127D01*
X479746Y195428D01*
X480755Y200500D01*
X479746Y205572D01*
X476872Y209872D01*
X472572Y212746D01*
X467500Y213755D01*
X462428Y212746D01*
X458128Y209872D01*
X455254Y205572D01*
X454245Y200500D01*
X454770Y197863D01*
X446930Y190023D01*
X444250Y189250D01*
X444250Y189250D01*
Y189250D01*
X444250Y189250D01*
X415750D01*
Y186766D01*
X411500D01*
Y205100D01*
X396508D01*
X395360Y207872D01*
X397483Y209994D01*
X401000Y209294D01*
X405097Y210109D01*
X408570Y212430D01*
X410891Y215903D01*
X411706Y220000D01*
X410891Y224097D01*
X408570Y227570D01*
X405097Y229891D01*
X401000Y230706D01*
X398923Y230293D01*
X397550Y232390D01*
X397369Y233042D01*
X398239Y234345D01*
X398588Y236101D01*
Y274088D01*
X398697Y274109D01*
X402170Y276430D01*
X404491Y279903D01*
X405306Y284000D01*
X404491Y288097D01*
X402170Y291570D01*
X398697Y293891D01*
X394600Y294706D01*
X390503Y293891D01*
X387030Y291570D01*
X384709Y288097D01*
X383894Y284000D01*
X384709Y279903D01*
X387030Y276430D01*
X389412Y274838D01*
Y252250D01*
X378750D01*
X378250Y253250D01*
X371401D01*
X367125Y257527D01*
X367123Y257536D01*
X365686Y259686D01*
X363536Y261123D01*
X361000Y261627D01*
X360880Y261603D01*
X358561Y263507D01*
Y266872D01*
X365683Y273994D01*
X369200Y273294D01*
X373297Y274109D01*
X376770Y276430D01*
X379091Y279903D01*
X379906Y284000D01*
X379091Y288097D01*
X376770Y291570D01*
X373297Y293891D01*
X369200Y294706D01*
X365103Y293891D01*
X361630Y291570D01*
X359309Y288097D01*
X358494Y284000D01*
X359194Y280483D01*
X350728Y272017D01*
X349734Y270529D01*
X349385Y268773D01*
Y257104D01*
X348973Y256766D01*
X347217Y256417D01*
X346473Y255920D01*
X345728Y256417D01*
X343973Y256766D01*
X342217Y256417D01*
X341795Y256135D01*
X338858Y256996D01*
X337588Y259550D01*
Y356950D01*
X337239Y358706D01*
X336244Y360194D01*
X322306Y374132D01*
X320817Y375127D01*
X319062Y375476D01*
X298203D01*
X296210Y378458D01*
X292737Y380779D01*
X288640Y381594D01*
X284543Y380779D01*
X281070Y378458D01*
X278749Y374985D01*
X277934Y370888D01*
X278023Y370441D01*
X275259Y368963D01*
X251137Y393084D01*
Y407337D01*
X252652Y408349D01*
X255304Y412318D01*
X255797Y414795D01*
X259052Y415783D01*
X278036Y396799D01*
X277934Y396288D01*
X278749Y392191D01*
X281070Y388718D01*
X284543Y386397D01*
X288640Y385582D01*
X292737Y386397D01*
X296210Y388718D01*
X298531Y392191D01*
X299346Y396288D01*
X298531Y400385D01*
X296210Y403858D01*
X292737Y406179D01*
X288640Y406994D01*
X288129Y406892D01*
X249975Y445047D01*
X247659Y446594D01*
X244928Y447137D01*
X115338D01*
Y454305D01*
X115890Y454906D01*
X118338Y456352D01*
X119343Y456152D01*
X127157D01*
X129108Y456540D01*
X130762Y457645D01*
X133355Y460238D01*
X134460Y461892D01*
X134848Y463843D01*
Y482000D01*
X134460Y483951D01*
X133355Y485605D01*
X128973Y489987D01*
Y493629D01*
X131094Y495750D01*
X131250D01*
X133836Y496750D01*
X140007D01*
X135879Y500879D01*
X138000Y503000D01*
X135879Y505121D01*
X140007Y509250D01*
X133836D01*
X131250Y510250D01*
X129164Y510250D01*
X124645D01*
X122478Y513250D01*
X122627Y514000D01*
X122123Y516536D01*
X120686Y518686D01*
X118536Y520123D01*
X116000Y520627D01*
X113464Y520123D01*
X111314Y518686D01*
X109877Y516536D01*
X109373Y514000D01*
X109522Y513250D01*
X107355Y510250D01*
X100750Y510250D01*
X98164Y509250D01*
X91993D01*
X96121Y505121D01*
X94000Y503000D01*
X96121Y500879D01*
X91993Y496750D01*
X98164D01*
X100750Y495750D01*
X103531D01*
X103007Y494486D01*
X105652Y491841D01*
Y490401D01*
X102129Y486879D01*
X98672Y490336D01*
X97500Y489709D01*
X97456Y489739D01*
X95700Y490088D01*
X89750D01*
Y490500D01*
X79250D01*
X78750Y489500D01*
X74492D01*
X76371Y487621D01*
X72129Y483379D01*
X70250Y485257D01*
Y483250D01*
X60250D01*
Y487007D01*
X56121Y482879D01*
X54000Y485000D01*
X51879Y482879D01*
X47750Y487007D01*
Y478750D01*
X46750Y478250D01*
Y463750D01*
X46750D01*
X48020Y460750D01*
X47877Y460536D01*
X47373Y458000D01*
X47877Y455464D01*
X49314Y453314D01*
X51464Y451877D01*
X54000Y451373D01*
X56536Y451877D01*
X58686Y453314D01*
X60123Y455464D01*
X60627Y458000D01*
X60123Y460536D01*
X59980Y460750D01*
X61250Y463750D01*
X63566Y465402D01*
X74500D01*
X74992Y465500D01*
X82540D01*
X83895Y464145D01*
X85549Y463040D01*
X87500Y462652D01*
X94591D01*
X97123Y460000D01*
X97627Y457464D01*
X99064Y455314D01*
X101214Y453877D01*
X103750Y453373D01*
X103843Y453391D01*
X106162Y451488D01*
Y447137D01*
X105200D01*
X102469Y446594D01*
X100153Y445047D01*
X79711Y424604D01*
X79200Y424706D01*
X75103Y423891D01*
X71630Y421570D01*
X69309Y418097D01*
X68494Y414000D01*
X69309Y409903D01*
X71630Y406430D01*
X75103Y404109D01*
X79200Y403294D01*
X83297Y404109D01*
X86770Y406430D01*
X89091Y409903D01*
X89770Y413320D01*
X91026Y414213D01*
X91384Y414186D01*
X93131Y413534D01*
X94164Y412643D01*
X94709Y409903D01*
X97030Y406430D01*
X100503Y404109D01*
X104600Y403294D01*
X108697Y404109D01*
X112170Y406430D01*
X114491Y409903D01*
X115306Y414000D01*
X114491Y418097D01*
X112170Y421570D01*
X108697Y423891D01*
X104600Y424706D01*
X104153Y424617D01*
X102675Y427382D01*
X108156Y432863D01*
X239894D01*
X240816Y431660D01*
X239570Y428354D01*
X239318Y428304D01*
X235348Y425652D01*
X232696Y421682D01*
X231765Y417000D01*
X232696Y412318D01*
X235348Y408349D01*
X236863Y407337D01*
Y396708D01*
X234091Y395560D01*
X215641Y414011D01*
X216235Y417000D01*
X215304Y421682D01*
X212652Y425652D01*
X208682Y428304D01*
X204000Y429235D01*
X199318Y428304D01*
X195348Y425652D01*
X192696Y421682D01*
X191765Y417000D01*
X192696Y412318D01*
X195348Y408349D01*
X199318Y405696D01*
X204000Y404765D01*
X206989Y405359D01*
X239883Y372466D01*
Y353000D01*
X240000Y352409D01*
Y344500D01*
X252000D01*
Y352409D01*
X252118Y353000D01*
Y367998D01*
X254889Y369146D01*
X278036Y345999D01*
X277934Y345488D01*
X278749Y341391D01*
X281070Y337918D01*
X284543Y335597D01*
X288640Y334782D01*
X292737Y335597D01*
X296210Y337918D01*
X297394Y339690D01*
X304657D01*
X305000Y338863D01*
Y330000D01*
X305000D01*
X306000Y329039D01*
Y315000D01*
X303414Y314000D01*
X298140D01*
Y325345D01*
X290761Y317967D01*
X288640Y320088D01*
X286519Y317967D01*
X279140Y325345D01*
Y310588D01*
X276749Y309118D01*
X243250D01*
Y320250D01*
X242618D01*
Y328500D01*
X242500Y329091D01*
Y337500D01*
X230500D01*
Y329091D01*
X230382Y328500D01*
Y322789D01*
X228750Y320250D01*
X226164Y319250D01*
X219993D01*
X224121Y315121D01*
X222000Y313000D01*
X224121Y310879D01*
X219993Y306750D01*
X226164D01*
X228750Y305750D01*
X230093D01*
X230700Y305421D01*
X230848Y304674D01*
X232174Y302689D01*
X236189Y298674D01*
X238174Y297348D01*
X240515Y296882D01*
X280426D01*
X282750Y295250D01*
Y284008D01*
X279750Y282765D01*
X272515Y290000D01*
X254515D01*
X245515Y281000D01*
Y263000D01*
X246309Y262206D01*
X244832Y259441D01*
X244091Y259588D01*
X236500D01*
Y263000D01*
X218500D01*
Y247000D01*
X236500D01*
Y250412D01*
X242190D01*
X263064Y229538D01*
X261916Y226766D01*
X236822D01*
X236500Y227089D01*
Y241800D01*
X196856D01*
X194250Y242750D01*
Y246807D01*
X194338Y247250D01*
X194250Y247693D01*
X194250Y257250D01*
X193250Y259836D01*
Y266007D01*
X189121Y261879D01*
X187000Y264000D01*
X184879Y261879D01*
X180750Y266007D01*
Y259836D01*
X180744Y259821D01*
X180151Y259469D01*
X177849D01*
X177256Y259821D01*
X177250Y259836D01*
Y266007D01*
X173121Y261879D01*
X171000Y264000D01*
X168879Y261879D01*
X164750Y266007D01*
Y259836D01*
X163750Y257250D01*
X163750Y255164D01*
Y242750D01*
X165392D01*
Y214000D01*
X165819Y211854D01*
X167035Y210035D01*
X173035Y204035D01*
X174854Y202819D01*
X176015Y202588D01*
X175720Y199588D01*
X155500D01*
Y213358D01*
X148021Y205879D01*
X143779Y210121D01*
X151257Y217600D01*
X114743D01*
X122221Y210121D01*
X120100Y208000D01*
X122221Y205879D01*
X114742Y198400D01*
X120548D01*
X120686Y198281D01*
X122029Y195400D01*
X121761Y194998D01*
X121412Y193243D01*
Y181000D01*
X95500D01*
Y175732D01*
X94250Y173250D01*
X81836D01*
X79750Y173250D01*
X77164Y172250D01*
X70993D01*
X75121Y168121D01*
X70879Y163879D01*
X66750Y168007D01*
Y160250D01*
X66750Y159750D01*
Y157250D01*
X66750Y156750D01*
Y145250D01*
X66750Y144750D01*
Y142250D01*
X66750Y141750D01*
Y133993D01*
X70879Y138121D01*
X75121Y133879D01*
X70993Y129750D01*
X77164D01*
X79750Y128750D01*
X84157Y128750D01*
X93453Y119453D01*
X95769Y117906D01*
X98500Y117363D01*
X103634D01*
X105127Y115127D01*
X109428Y112254D01*
X114500Y111245D01*
X119572Y112254D01*
X123872Y115127D01*
X126746Y119428D01*
X127755Y124500D01*
X126746Y129572D01*
X123872Y133872D01*
X119572Y136746D01*
X114500Y137755D01*
X109428Y136746D01*
X105127Y133872D01*
X104142Y132397D01*
X100915Y132178D01*
X94250Y138843D01*
X94250Y143250D01*
X96321Y145392D01*
X218000D01*
X220146Y145819D01*
X221965Y147035D01*
X224965Y150035D01*
X226181Y151854D01*
X226608Y154000D01*
Y155000D01*
X240041D01*
X241189Y152228D01*
X218281Y129320D01*
X190732D01*
X190379Y129250D01*
X188193D01*
X187750Y129338D01*
X171792D01*
X171746Y129572D01*
X168873Y133872D01*
X164572Y136746D01*
X159500Y137755D01*
X154428Y136746D01*
X150127Y133872D01*
X147254Y129572D01*
X146245Y124500D01*
X147254Y119428D01*
X150127Y115127D01*
X154428Y112254D01*
X159500Y111245D01*
X164572Y112254D01*
X168873Y115127D01*
X171746Y119428D01*
X171892Y120162D01*
X180750D01*
Y111543D01*
X180250Y108750D01*
X167750D01*
Y93250D01*
X168392D01*
Y85750D01*
X163493D01*
X166621Y82621D01*
X162379Y78379D01*
X159250Y81507D01*
Y73067D01*
X159250D01*
X156511Y72160D01*
X154428Y71746D01*
X150127Y68872D01*
X147254Y64572D01*
X146245Y59500D01*
X147254Y54428D01*
X150127Y50128D01*
X151942Y48915D01*
X152750Y46250D01*
X152750D01*
Y37992D01*
X156879Y42121D01*
X161121Y37879D01*
X156993Y33750D01*
X165250D01*
X165750Y32750D01*
X180250D01*
Y32750D01*
X181750Y33750D01*
X190007D01*
X185879Y37879D01*
X190121Y42121D01*
X194250Y37993D01*
X201632D01*
X204993Y37993D01*
X205000Y38000D01*
X205262Y38633D01*
X230557D01*
X232430Y35830D01*
X235903Y33509D01*
X240000Y32694D01*
X244097Y33509D01*
X247570Y35830D01*
X249891Y39303D01*
X250706Y43400D01*
X249891Y47497D01*
X247570Y50970D01*
X244097Y53291D01*
X240000Y54106D01*
X235903Y53291D01*
X232430Y50970D01*
X232361Y50868D01*
X225250D01*
Y58608D01*
X228250Y60133D01*
X229500Y59221D01*
Y58300D01*
X250500D01*
Y79300D01*
X229500D01*
Y75887D01*
X225250D01*
Y76250D01*
X210750D01*
X210250Y75250D01*
X201993D01*
X206121Y71121D01*
X201879Y66879D01*
X197750Y71007D01*
X197750Y71008D01*
Y71007D01*
X192650D01*
X189750Y71250D01*
Y78819D01*
X191965Y81035D01*
X193181Y82854D01*
X193608Y85000D01*
Y100750D01*
X203993D01*
X204750Y99993D01*
X208879Y104121D01*
X213121Y99879D01*
X208993Y95750D01*
X216750D01*
X217250Y95750D01*
X219750D01*
X220250Y95750D01*
X231164Y95750D01*
X233750Y94750D01*
X234836Y94750D01*
X248250D01*
Y108750D01*
Y123250D01*
X245588D01*
Y129508D01*
X259186Y143106D01*
X262492Y142169D01*
X262774Y140978D01*
X262348Y140341D01*
X261882Y138000D01*
Y121500D01*
X257500D01*
Y100500D01*
X278500D01*
Y121500D01*
X280935Y122863D01*
X281314D01*
X284045Y123406D01*
X286360Y124953D01*
X287640Y126233D01*
X290412Y125085D01*
Y78250D01*
X288750D01*
Y65836D01*
X288750Y63750D01*
X289750Y61164D01*
Y54993D01*
X293879Y59121D01*
X296000Y57000D01*
X298121Y59121D01*
X302250Y54992D01*
Y57482D01*
X303414Y60000D01*
X304970Y60000D01*
X316469D01*
X317000Y59894D01*
X317532Y60000D01*
X327600D01*
X334830Y52770D01*
X336604Y54545D01*
X335079Y52957D01*
X334830Y52770D01*
X334830Y52770D01*
X332509Y49297D01*
X331694Y45200D01*
X332509Y41103D01*
X334830Y37630D01*
X338303Y35309D01*
X342400Y34494D01*
X346497Y35309D01*
X347566Y36024D01*
X357750D01*
Y27993D01*
X361879Y32121D01*
X364000Y30000D01*
X366121Y32121D01*
X370250Y27993D01*
Y36024D01*
X381950D01*
X385462Y36722D01*
X388439Y38711D01*
X397727Y48000D01*
X414250D01*
Y70000D01*
X404676D01*
Y76373D01*
X455000D01*
Y72000D01*
X471000D01*
Y94000D01*
X455000D01*
Y89627D01*
X404676D01*
Y96314D01*
X403978Y99825D01*
X401989Y102802D01*
X376176Y128615D01*
Y139750D01*
X382007D01*
X377879Y143879D01*
X380000Y146000D01*
X377879Y148121D01*
X382007Y152250D01*
X376176D01*
Y157000D01*
X375478Y160512D01*
X373489Y163489D01*
X370512Y165478D01*
X367000Y166176D01*
X363488Y165478D01*
X361561Y164190D01*
X358561Y165558D01*
Y168178D01*
X358212Y169934D01*
X357217Y171423D01*
X355728Y172417D01*
X353973Y172766D01*
X352217Y172417D01*
X350728Y171423D01*
X350633Y171279D01*
X348973Y171967D01*
X347313Y171279D01*
X347217Y171423D01*
X345728Y172417D01*
X343973Y172766D01*
X342840Y172541D01*
X341077Y173906D01*
X340390Y174804D01*
X340627Y176000D01*
X340123Y178536D01*
X338686Y180686D01*
X336536Y182123D01*
X334000Y182627D01*
X331464Y182123D01*
X329314Y180686D01*
X327877Y178536D01*
X327373Y176000D01*
X327619Y174762D01*
X326855Y173815D01*
X325169Y172528D01*
X323973Y172766D01*
X322217Y172417D01*
X321473Y171920D01*
X320728Y172417D01*
X318973Y172766D01*
X317217Y172417D01*
X316473Y171920D01*
X315728Y172417D01*
X313973Y172766D01*
X312217Y172417D01*
X311473Y171920D01*
X310728Y172417D01*
X308973Y172766D01*
X307386Y172451D01*
X306495Y173123D01*
X305835Y173768D01*
X305160Y174651D01*
X305627Y177000D01*
X305123Y179536D01*
X303686Y181686D01*
X301536Y183123D01*
X299000Y183627D01*
X296464Y183123D01*
X294493Y184238D01*
X294212Y185422D01*
X294561Y187178D01*
X294212Y188934D01*
X295024Y190825D01*
X298232Y191700D01*
X299464Y190877D01*
X302000Y190373D01*
X304536Y190877D01*
X306686Y192314D01*
X308123Y194464D01*
X308627Y197000D01*
X308123Y199536D01*
X306686Y201686D01*
X304536Y203123D01*
X302000Y203627D01*
X299464Y203123D01*
X297662Y201919D01*
X294698Y202635D01*
X294234Y203820D01*
X294212Y203934D01*
X294159Y204013D01*
X293831Y204852D01*
X294212Y205422D01*
X294561Y207178D01*
X294212Y208934D01*
X293714Y209678D01*
X294212Y210422D01*
X294561Y212178D01*
X294212Y213934D01*
X293714Y214678D01*
X294212Y215422D01*
X294561Y217178D01*
X294212Y218934D01*
X293714Y219678D01*
X294212Y220422D01*
X294561Y222178D01*
X294212Y223934D01*
X293714Y224678D01*
X294212Y225422D01*
X294561Y227178D01*
X294212Y228934D01*
X293714Y229678D01*
X294212Y230422D01*
X294561Y232178D01*
X294212Y233934D01*
X293217Y235423D01*
X291728Y236417D01*
X289973Y236766D01*
X288903D01*
X286000Y237000D01*
Y256750D01*
X294385D01*
Y252178D01*
Y241178D01*
X294734Y239422D01*
X295728Y237934D01*
X297217Y236939D01*
X298973Y236590D01*
X300728Y236939D01*
X302217Y237934D01*
X302313Y238077D01*
X303973Y237390D01*
X305633Y238077D01*
X305728Y237934D01*
X307217Y236939D01*
X308973Y236590D01*
X310728Y236939D01*
X311473Y237437D01*
X312217Y236939D01*
X313973Y236590D01*
X315728Y236939D01*
X316473Y237437D01*
X317217Y236939D01*
X318973Y236590D01*
X320728Y236939D01*
X321473Y237437D01*
X322217Y236939D01*
X323973Y236590D01*
X325728Y236939D01*
X326473Y237437D01*
X327217Y236939D01*
X328973Y236590D01*
X330728Y236939D01*
X331473Y237437D01*
X332217Y236939D01*
X333973Y236590D01*
X335728Y236939D01*
X336473Y237437D01*
X337217Y236939D01*
X338973Y236590D01*
X340728Y236939D01*
X341473Y237437D01*
X342217Y236939D01*
X343973Y236590D01*
X345728Y236939D01*
X346473Y237437D01*
X347217Y236939D01*
X348973Y236590D01*
X350728Y236939D01*
X351473Y237437D01*
X352217Y236939D01*
X353973Y236590D01*
X355728Y236939D01*
X355734Y236943D01*
X358734Y235339D01*
Y233934D01*
X358385Y232178D01*
X358734Y230422D01*
X359728Y228934D01*
X359872Y228838D01*
X359184Y227178D01*
X359872Y225518D01*
X359728Y225423D01*
X358734Y223934D01*
X358385Y222178D01*
X358734Y220422D01*
X359231Y219678D01*
X358734Y218934D01*
X358385Y217178D01*
X358734Y215422D01*
X359231Y214678D01*
X358734Y213934D01*
X358385Y212178D01*
X358734Y210422D01*
X359231Y209678D01*
X358734Y208934D01*
X358385Y207178D01*
X358734Y205422D01*
X359231Y204678D01*
X358734Y203934D01*
X358385Y202178D01*
X358734Y200422D01*
X359231Y199678D01*
X358734Y198934D01*
X358385Y197178D01*
X358734Y195422D01*
X359231Y194678D01*
X358734Y193934D01*
X358385Y192178D01*
X358734Y190422D01*
X359231Y189678D01*
X358734Y188934D01*
X358385Y187178D01*
X358734Y185422D01*
X359231Y184678D01*
X358734Y183934D01*
X358385Y182178D01*
X358734Y180422D01*
X359231Y179678D01*
X358734Y178934D01*
X358385Y177178D01*
X358734Y175422D01*
X359728Y173934D01*
X361217Y172939D01*
X362973Y172590D01*
X410921D01*
X415750Y167761D01*
Y159750D01*
X444250D01*
Y159863D01*
X547000D01*
X549731Y160406D01*
X552047Y161953D01*
X577863Y187770D01*
X580500Y187245D01*
X585572Y188254D01*
X589873Y191127D01*
X592746Y195428D01*
X593755Y200500D01*
X592746Y205572D01*
X589873Y209872D01*
X585572Y212746D01*
X580500Y213755D01*
X577029Y213064D01*
X571250Y218843D01*
Y227878D01*
X576428Y233055D01*
X580500Y232245D01*
X585572Y233254D01*
X589873Y236127D01*
X592746Y240428D01*
X593755Y245500D01*
X592746Y250572D01*
X589873Y254872D01*
X590856Y257824D01*
X621000D01*
X624512Y258522D01*
X627489Y260511D01*
X629478Y263488D01*
X630127Y266750D01*
X633000D01*
Y271012D01*
X634485Y273353D01*
X637412Y273935D01*
X639892Y275593D01*
X673653Y309353D01*
X700545D01*
X703903Y307109D01*
X708000Y306294D01*
X712097Y307109D01*
X715570Y309430D01*
X717891Y312903D01*
X717922Y313058D01*
X720922Y312763D01*
X720922Y10000D01*
X720812D01*
X720369Y7776D01*
X719109Y5890D01*
X717224Y4631D01*
X715000Y4188D01*
Y4078D01*
X10000D01*
Y4188D01*
X7776Y4631D01*
X5890Y5890D01*
X4631Y7776D01*
X4188Y10000D01*
X4078D01*
X4078Y587000D01*
X4188Y590000D01*
Y590000D01*
X4941Y592688D01*
X5890Y594109D01*
X7776Y595369D01*
X10000Y595812D01*
Y595922D01*
X715000D01*
Y595812D01*
D02*
G37*
G36*
X571500Y302500D02*
X584902D01*
Y291000D01*
X585290Y289049D01*
X586395Y287395D01*
X586645Y287145D01*
X588299Y286040D01*
X588623Y285976D01*
X590250Y285652D01*
X610500D01*
Y281738D01*
X610353Y281000D01*
X610500Y280261D01*
Y279750D01*
Y276176D01*
X576500D01*
Y280750D01*
Y286250D01*
X577500D01*
Y295250D01*
X568515D01*
X568201Y295460D01*
X566250Y295848D01*
X559098D01*
Y303902D01*
X571500D01*
Y302500D01*
D02*
G37*
%LPC*%
G36*
X644000Y572276D02*
X635646Y571176D01*
X627862Y567952D01*
X623578Y564665D01*
X644000Y544243D01*
X664422Y564665D01*
X660138Y567952D01*
X652354Y571176D01*
X644000Y572276D01*
D02*
G37*
G36*
X59000D02*
X50646Y571176D01*
X42862Y567952D01*
X38578Y564665D01*
X59000Y544243D01*
X79422Y564665D01*
X75138Y567952D01*
X67354Y571176D01*
X59000Y572276D01*
D02*
G37*
G36*
X83665Y560422D02*
X63243Y540000D01*
X83665Y519578D01*
X86952Y523862D01*
X90176Y531646D01*
X91276Y540000D01*
X90176Y548354D01*
X86952Y556138D01*
X83665Y560422D01*
D02*
G37*
G36*
X668665D02*
X648243Y540000D01*
X668665Y519578D01*
X671952Y523862D01*
X675176Y531646D01*
X676276Y540000D01*
X675176Y548354D01*
X671952Y556138D01*
X668665Y560422D01*
D02*
G37*
G36*
X619335D02*
X616048Y556138D01*
X612824Y548354D01*
X611724Y540000D01*
X612824Y531646D01*
X616048Y523862D01*
X619335Y519578D01*
X639757Y540000D01*
X619335Y560422D01*
D02*
G37*
G36*
X34335D02*
X31048Y556138D01*
X27824Y548354D01*
X26724Y540000D01*
X27824Y531646D01*
X31048Y523862D01*
X34335Y519578D01*
X54757Y540000D01*
X34335Y560422D01*
D02*
G37*
G36*
X644000Y535757D02*
X623578Y515335D01*
X627862Y512048D01*
X635646Y508824D01*
X644000Y507724D01*
X652354Y508824D01*
X660138Y512048D01*
X664422Y515335D01*
X644000Y535757D01*
D02*
G37*
G36*
X59000D02*
X38578Y515335D01*
X42862Y512048D01*
X50646Y508824D01*
X59000Y507724D01*
X67354Y508824D01*
X75138Y512048D01*
X79422Y515335D01*
X59000Y535757D01*
D02*
G37*
G36*
X144250Y505007D02*
X142243Y503000D01*
X144250Y500992D01*
Y505007D01*
D02*
G37*
G36*
X87750Y505007D02*
Y500992D01*
X89757Y503000D01*
X87750Y505007D01*
D02*
G37*
G36*
X609900Y515500D02*
X588900D01*
Y494500D01*
X609900D01*
Y515500D01*
D02*
G37*
G36*
X574000Y515706D02*
X569903Y514891D01*
X566430Y512570D01*
X564109Y509097D01*
X563294Y505000D01*
X563469Y504121D01*
X528848Y469500D01*
X525500D01*
Y468500D01*
X518500D01*
Y469500D01*
X506500D01*
X506000Y472293D01*
Y477000D01*
X446000D01*
Y470176D01*
X422000D01*
X418488Y469478D01*
X415511Y467489D01*
X413522Y464512D01*
X412824Y461000D01*
X413522Y457488D01*
X415511Y454511D01*
X418488Y452522D01*
X422000Y451824D01*
X443406D01*
X443812Y451000D01*
X443534Y449974D01*
X441945Y448000D01*
X431993D01*
X436871Y443121D01*
X434750Y441000D01*
X436000Y439750D01*
X439371Y443121D01*
X444250Y438243D01*
Y442725D01*
X446000Y445000D01*
X447250Y445000D01*
X463598D01*
X463953Y444468D01*
X493218Y415203D01*
X495533Y413656D01*
X498265Y413113D01*
X502750D01*
Y412750D01*
X531250D01*
Y412750D01*
X531750D01*
Y412750D01*
X544164D01*
X546250Y412750D01*
X548836Y413750D01*
X555008D01*
X550879Y417879D01*
X553000Y420000D01*
X550879Y422121D01*
X555007Y426250D01*
X548836D01*
X546250Y427250D01*
X544164Y427250D01*
X537617D01*
Y435000D01*
X537500Y435591D01*
Y443500D01*
X525500D01*
Y435591D01*
X525382Y435000D01*
Y427250D01*
X518500D01*
Y433311D01*
X518637Y434000D01*
X518500Y434689D01*
Y443500D01*
X509023D01*
X508345Y443540D01*
X508306Y443546D01*
X506261Y444836D01*
X506040Y446068D01*
X506000Y446554D01*
X506000Y447362D01*
Y449707D01*
X506500Y452500D01*
X518500D01*
Y453500D01*
X525500D01*
Y452500D01*
X537500D01*
Y460409D01*
X537609Y460958D01*
X539978Y463327D01*
X542750Y462179D01*
Y453000D01*
X561250D01*
Y459628D01*
X567686Y466064D01*
X569123Y468214D01*
X569627Y470750D01*
Y481000D01*
X569123Y483536D01*
X567686Y485686D01*
X567023Y486129D01*
X566424Y489772D01*
X571452Y494801D01*
X574000Y494294D01*
X578097Y495109D01*
X581570Y497430D01*
X583891Y500903D01*
X584706Y505000D01*
X583891Y509097D01*
X581570Y512570D01*
X578097Y514891D01*
X574000Y515706D01*
D02*
G37*
G36*
X706757Y498000D02*
X692243D01*
X699500Y490743D01*
X706757Y498000D01*
D02*
G37*
G36*
X56007Y491250D02*
X51993D01*
X54000Y489243D01*
X56007Y491250D01*
D02*
G37*
G36*
X699500Y487500D02*
X699000Y487000D01*
X699500Y486500D01*
X700000Y487000D01*
X699500Y487500D01*
D02*
G37*
G36*
X679757Y490500D02*
X668243D01*
X674000Y484743D01*
X679757Y490500D01*
D02*
G37*
G36*
X688000Y493757D02*
Y480243D01*
X694757Y487000D01*
X688000Y493757D01*
D02*
G37*
G36*
X711000Y493757D02*
X704243Y487000D01*
X711000Y480243D01*
Y493757D01*
D02*
G37*
G36*
X699500Y483257D02*
X692243Y476000D01*
X706757D01*
X699500Y483257D01*
D02*
G37*
G36*
X556007Y448000D02*
X547992D01*
X552000Y443993D01*
X556007Y448000D01*
D02*
G37*
G36*
X552000Y442250D02*
X550750Y441000D01*
X552000Y439750D01*
X553250Y441000D01*
X552000Y442250D01*
D02*
G37*
G36*
X427750Y443757D02*
Y438243D01*
X430507Y441000D01*
X427750Y443757D01*
D02*
G37*
G36*
X543750Y443757D02*
Y438243D01*
X546507Y441000D01*
X543750Y443757D01*
D02*
G37*
G36*
X560250Y443757D02*
X557493Y441000D01*
X560250Y438242D01*
Y443757D01*
D02*
G37*
G36*
X436000Y438008D02*
X431993Y434000D01*
X440007D01*
X436000Y438008D01*
D02*
G37*
G36*
X552000Y438007D02*
X547993Y434000D01*
X556007D01*
X552000Y438007D01*
D02*
G37*
G36*
X664000Y486257D02*
Y465500D01*
X664000D01*
Y464000D01*
X664000D01*
Y458500D01*
X663000D01*
Y448500D01*
Y443089D01*
X661267Y441207D01*
X660000Y440627D01*
X657464Y440123D01*
X655314Y438686D01*
X653877Y436536D01*
X653373Y434000D01*
X653877Y431464D01*
X655314Y429314D01*
X657464Y427877D01*
X660000Y427373D01*
X661000Y427572D01*
X663829Y425639D01*
X664000Y425342D01*
Y407743D01*
X671879Y415621D01*
X674000Y413500D01*
X676121Y415621D01*
X684000Y407743D01*
Y424380D01*
X685046Y424890D01*
X688000Y425000D01*
Y425000D01*
X706758D01*
X698129Y433629D01*
X702371Y437871D01*
X711000Y429243D01*
Y446500D01*
X711000D01*
Y447500D01*
X711000D01*
Y464757D01*
X702371Y456129D01*
X698129Y460371D01*
X706757Y469000D01*
X688000D01*
Y469000D01*
X685264Y469638D01*
X684000Y470463D01*
Y486257D01*
X676121Y478379D01*
X674000Y480500D01*
X671879Y478379D01*
X664000Y486257D01*
D02*
G37*
G36*
X130000Y423686D02*
X126293Y422949D01*
X125694Y422548D01*
X130000Y418242D01*
X134306Y422548D01*
X133707Y422949D01*
X130000Y423686D01*
D02*
G37*
G36*
X559250Y422007D02*
X557243Y420000D01*
X559250Y417993D01*
Y422007D01*
D02*
G37*
G36*
X706757Y418000D02*
X692243D01*
X699500Y410743D01*
X706757Y418000D01*
D02*
G37*
G36*
X121452Y418306D02*
X121051Y417707D01*
X120314Y414000D01*
X121051Y410293D01*
X121452Y409694D01*
X125757Y414000D01*
X121452Y418306D01*
D02*
G37*
G36*
X138548Y418306D02*
X134243Y414000D01*
X138548Y409694D01*
X138949Y410293D01*
X139686Y414000D01*
X138949Y417707D01*
X138548Y418306D01*
D02*
G37*
G36*
X699500Y407500D02*
X699000Y407000D01*
X699500Y406500D01*
X700000Y407000D01*
X699500Y407500D01*
D02*
G37*
G36*
X130000Y409757D02*
X125694Y405452D01*
X126293Y405051D01*
X130000Y404314D01*
X133707Y405051D01*
X134306Y405452D01*
X130000Y409757D01*
D02*
G37*
G36*
X674000Y409257D02*
X668243Y403500D01*
X679757D01*
X674000Y409257D01*
D02*
G37*
G36*
X165900Y424500D02*
X144900D01*
Y403500D01*
X165900D01*
Y424500D01*
D02*
G37*
G36*
X688000Y413757D02*
Y400243D01*
X694757Y407000D01*
X688000Y413757D01*
D02*
G37*
G36*
X711000Y413757D02*
X704243Y407000D01*
X711000Y400243D01*
Y413757D01*
D02*
G37*
G36*
X699500Y403257D02*
X692243Y396000D01*
X706757D01*
X699500Y403257D01*
D02*
G37*
G36*
X390000Y377627D02*
X387464Y377123D01*
X385314Y375686D01*
X383877Y373536D01*
X383373Y371000D01*
X383877Y368464D01*
X385314Y366314D01*
X387464Y364877D01*
X390000Y364373D01*
X392536Y364877D01*
X394686Y366314D01*
X396123Y368464D01*
X396627Y371000D01*
X396123Y373536D01*
X394686Y375686D01*
X392536Y377123D01*
X390000Y377627D01*
D02*
G37*
G36*
X568007Y340250D02*
X563993D01*
X566000Y338243D01*
X568007Y340250D01*
D02*
G37*
G36*
X256258Y336500D02*
X254743D01*
X255500Y335742D01*
X256258Y336500D01*
D02*
G37*
G36*
X250500Y332257D02*
Y325742D01*
X253379Y328621D01*
X255500Y326500D01*
X257621Y328621D01*
X260500Y325743D01*
Y332257D01*
X257621Y329379D01*
X255500Y331500D01*
X253379Y329379D01*
X250500Y332257D01*
D02*
G37*
G36*
X293897Y329588D02*
X283383D01*
X288640Y324331D01*
X293897Y329588D01*
D02*
G37*
G36*
X255500Y322257D02*
X254743Y321500D01*
X256257D01*
X255500Y322257D01*
D02*
G37*
G36*
X215750Y315007D02*
Y310993D01*
X217757Y313000D01*
X215750Y315007D01*
D02*
G37*
G36*
X450658Y293500D02*
X440143D01*
X445400Y288243D01*
X450658Y293500D01*
D02*
G37*
G36*
X420000Y293686D02*
X416293Y292949D01*
X415694Y292549D01*
X420000Y288243D01*
X424306Y292548D01*
X423707Y292949D01*
X420000Y293686D01*
D02*
G37*
G36*
X428549Y288306D02*
X424243Y284000D01*
X428548Y279694D01*
X428949Y280293D01*
X429686Y284000D01*
X428949Y287707D01*
X428549Y288306D01*
D02*
G37*
G36*
X411451Y288306D02*
X411051Y287707D01*
X410314Y284000D01*
X411051Y280293D01*
X411452Y279694D01*
X415757Y284000D01*
X411451Y288306D01*
D02*
G37*
G36*
X454900Y289257D02*
X449643Y284000D01*
X454900Y278743D01*
Y289257D01*
D02*
G37*
G36*
X435900Y289257D02*
Y278743D01*
X441157Y284000D01*
X435900Y289257D01*
D02*
G37*
G36*
X60485Y289147D02*
X56047Y288562D01*
X51912Y286849D01*
X50761Y285966D01*
X60485Y276243D01*
X70209Y285967D01*
X69058Y286849D01*
X64923Y288562D01*
X60485Y289147D01*
D02*
G37*
G36*
X445400Y279757D02*
X440143Y274500D01*
X450657D01*
X445400Y279757D01*
D02*
G37*
G36*
X420000D02*
X415694Y275452D01*
X416293Y275051D01*
X420000Y274314D01*
X423707Y275051D01*
X424306Y275452D01*
X420000Y279757D01*
D02*
G37*
G36*
X189007Y270250D02*
X184993D01*
X187000Y268243D01*
X189007Y270250D01*
D02*
G37*
G36*
X173007D02*
X168993D01*
X171000Y268243D01*
X173007Y270250D01*
D02*
G37*
G36*
X46518Y281724D02*
X45635Y280573D01*
X43923Y276438D01*
X43338Y272000D01*
X43923Y267562D01*
X45635Y263427D01*
X46518Y262276D01*
X56242Y272000D01*
X46518Y281724D01*
D02*
G37*
G36*
X74451Y281724D02*
X64728Y272000D01*
X74451Y262276D01*
X75334Y263427D01*
X77047Y267562D01*
X77632Y272000D01*
X77047Y276438D01*
X75334Y280573D01*
X74451Y281724D01*
D02*
G37*
G36*
X60485Y267757D02*
X50761Y258034D01*
X51912Y257150D01*
X56047Y255438D01*
X60485Y254853D01*
X64923Y255438D01*
X69058Y257150D01*
X70209Y258033D01*
X60485Y267757D01*
D02*
G37*
G36*
X645500Y258755D02*
X640428Y257746D01*
X636128Y254872D01*
X633254Y250572D01*
X632245Y245500D01*
X633254Y240428D01*
X636128Y236127D01*
X640428Y233254D01*
X645500Y232245D01*
X650572Y233254D01*
X654873Y236127D01*
X657746Y240428D01*
X658755Y245500D01*
X657746Y250572D01*
X654873Y254872D01*
X650572Y257746D01*
X645500Y258755D01*
D02*
G37*
G36*
X467500D02*
X462428Y257746D01*
X458128Y254872D01*
X455254Y250572D01*
X454245Y245500D01*
X455254Y240428D01*
X458128Y236127D01*
X462428Y233254D01*
X467500Y232245D01*
X472572Y233254D01*
X476872Y236127D01*
X479746Y240428D01*
X480755Y245500D01*
X479746Y250572D01*
X476872Y254872D01*
X472572Y257746D01*
X467500Y258755D01*
D02*
G37*
G36*
X110500Y236557D02*
Y225843D01*
X115857Y231200D01*
X110500Y236557D01*
D02*
G37*
G36*
X155500Y236557D02*
X150142Y231200D01*
X155500Y225843D01*
Y236557D01*
D02*
G37*
G36*
X151257Y240800D02*
X114742D01*
X122221Y233321D01*
X120100Y231200D01*
X122221Y229079D01*
X114742Y221600D01*
X151257D01*
X143779Y229079D01*
X145900Y231200D01*
X143779Y233321D01*
X151257Y240800D01*
D02*
G37*
G36*
X110500Y213357D02*
Y202643D01*
X115857Y208000D01*
X110500Y213357D01*
D02*
G37*
G36*
X645500Y213755D02*
X640428Y212746D01*
X636128Y209872D01*
X633254Y205572D01*
X632245Y200500D01*
X633254Y195428D01*
X636128Y191127D01*
X640428Y188254D01*
X645500Y187245D01*
X650572Y188254D01*
X654873Y191127D01*
X657746Y195428D01*
X658755Y200500D01*
X657746Y205572D01*
X654873Y209872D01*
X650572Y212746D01*
X645500Y213755D01*
D02*
G37*
G36*
X386250Y148007D02*
X384243Y146000D01*
X386250Y143993D01*
Y148007D01*
D02*
G37*
G36*
X475500Y122500D02*
X454500D01*
Y101500D01*
X475500D01*
Y122500D01*
D02*
G37*
G36*
X490400Y122706D02*
X486303Y121891D01*
X482830Y119570D01*
X480509Y116097D01*
X479694Y112000D01*
X480509Y107903D01*
X482830Y104430D01*
X485073Y102931D01*
Y94000D01*
X485000D01*
Y72000D01*
X501000D01*
Y94000D01*
X498327D01*
Y104965D01*
X500291Y107903D01*
X501106Y112000D01*
X500291Y116097D01*
X497970Y119570D01*
X494497Y121891D01*
X490400Y122706D01*
D02*
G37*
G36*
X644000Y92276D02*
X635646Y91176D01*
X627862Y87952D01*
X623578Y84665D01*
X644000Y64243D01*
X664422Y84665D01*
X660138Y87952D01*
X652354Y91176D01*
X644000Y92276D01*
D02*
G37*
G36*
X59000D02*
X50646Y91176D01*
X42862Y87952D01*
X38578Y84665D01*
X59000Y64243D01*
X79422Y84665D01*
X75138Y87952D01*
X67354Y91176D01*
X59000Y92276D01*
D02*
G37*
G36*
X462250Y64757D02*
X456493Y59000D01*
X462250Y53243D01*
Y64757D01*
D02*
G37*
G36*
X426750Y64757D02*
Y53243D01*
X432507Y59000D01*
X426750Y64757D01*
D02*
G37*
G36*
X296000Y52757D02*
X293993Y50750D01*
X298007D01*
X296000Y52757D01*
D02*
G37*
G36*
X322257Y54700D02*
X311743D01*
X317000Y49443D01*
X322257Y54700D01*
D02*
G37*
G36*
X458007Y69000D02*
X430993D01*
X438871Y61121D01*
X436750Y59000D01*
X438871Y56879D01*
X430993Y49000D01*
X458007D01*
X450129Y56879D01*
X452250Y59000D01*
X450129Y61121D01*
X458007Y69000D01*
D02*
G37*
G36*
X114500Y72755D02*
X109428Y71746D01*
X105127Y68872D01*
X102254Y64572D01*
X101245Y59500D01*
X102254Y54428D01*
X105127Y50128D01*
X109428Y47254D01*
X114500Y46245D01*
X119572Y47254D01*
X123872Y50128D01*
X126746Y54428D01*
X127755Y59500D01*
X126746Y64572D01*
X123872Y68872D01*
X119572Y71746D01*
X114500Y72755D01*
D02*
G37*
G36*
X307500Y50457D02*
Y39943D01*
X312757Y45200D01*
X307500Y50457D01*
D02*
G37*
G36*
X326500Y50458D02*
X321243Y45200D01*
X326500Y39943D01*
Y50458D01*
D02*
G37*
G36*
X668665Y80422D02*
X648243Y60000D01*
X668665Y39578D01*
X671952Y43862D01*
X675176Y51646D01*
X676276Y60000D01*
X675176Y68354D01*
X671952Y76138D01*
X668665Y80422D01*
D02*
G37*
G36*
X83665D02*
X63243Y60000D01*
X83665Y39578D01*
X86952Y43862D01*
X90176Y51646D01*
X91276Y60000D01*
X90176Y68354D01*
X86952Y76138D01*
X83665Y80422D01*
D02*
G37*
G36*
X34335D02*
X31048Y76138D01*
X27824Y68354D01*
X26724Y60000D01*
X27824Y51646D01*
X31048Y43862D01*
X34335Y39578D01*
X54757Y60000D01*
X34335Y80422D01*
D02*
G37*
G36*
X619335D02*
X616048Y76138D01*
X612824Y68354D01*
X611724Y60000D01*
X612824Y51646D01*
X616048Y43862D01*
X619335Y39578D01*
X639757Y60000D01*
X619335Y80422D01*
D02*
G37*
G36*
X317000Y40957D02*
X311742Y35700D01*
X322257D01*
X317000Y40957D01*
D02*
G37*
G36*
X644000Y55757D02*
X623578Y35335D01*
X627862Y32048D01*
X635646Y28824D01*
X644000Y27724D01*
X652354Y28824D01*
X660138Y32048D01*
X664422Y35335D01*
X644000Y55757D01*
D02*
G37*
G36*
X59000D02*
X38578Y35335D01*
X42862Y32048D01*
X50646Y28824D01*
X59000Y27724D01*
X67354Y28824D01*
X75138Y32048D01*
X79422Y35335D01*
X59000Y55757D01*
D02*
G37*
G36*
X364000Y25757D02*
X361993Y23750D01*
X366007D01*
X364000Y25757D01*
D02*
G37*
G36*
X240000Y27686D02*
X236293Y26949D01*
X235694Y26548D01*
X240000Y22243D01*
X244306Y26549D01*
X243707Y26949D01*
X240000Y27686D01*
D02*
G37*
G36*
X231451Y22306D02*
X231051Y21707D01*
X230314Y18000D01*
X231051Y14293D01*
X231451Y13694D01*
X235757Y18000D01*
X231451Y22306D01*
D02*
G37*
G36*
X248548Y22306D02*
X244243Y18000D01*
X248548Y13694D01*
X248949Y14293D01*
X249686Y18000D01*
X248949Y21707D01*
X248548Y22306D01*
D02*
G37*
G36*
X240000Y13757D02*
X235694Y9452D01*
X236293Y9051D01*
X240000Y8314D01*
X243707Y9051D01*
X244306Y9452D01*
X240000Y13757D01*
D02*
G37*
%LPD*%
D16*
X87000Y478000D02*
D03*
X72000D02*
D03*
D17*
X84500Y485500D02*
D03*
Y470500D02*
D03*
X74500D02*
D03*
Y485500D02*
D03*
D18*
X123750Y467750D02*
D03*
X117250D02*
D03*
X110750D02*
D03*
X104250D02*
D03*
Y488250D02*
D03*
X110750D02*
D03*
X117250D02*
D03*
X123750D02*
D03*
D45*
X296000Y71000D02*
D03*
Y57000D02*
D03*
X364000Y44000D02*
D03*
Y30000D02*
D03*
X226000Y102000D02*
D03*
Y116000D02*
D03*
X211000Y102000D02*
D03*
Y116000D02*
D03*
X187000Y250000D02*
D03*
Y264000D02*
D03*
X171000Y250000D02*
D03*
Y264000D02*
D03*
X564000Y216000D02*
D03*
Y230000D02*
D03*
X188000Y54000D02*
D03*
Y40000D02*
D03*
X549000Y216000D02*
D03*
Y230000D02*
D03*
X271000Y155000D02*
D03*
Y141000D02*
D03*
X241000Y102000D02*
D03*
Y116000D02*
D03*
X286000Y155000D02*
D03*
Y141000D02*
D03*
X188000Y108000D02*
D03*
Y122000D02*
D03*
X320000Y292000D02*
D03*
Y306000D02*
D03*
X364000Y108000D02*
D03*
Y94000D02*
D03*
Y65000D02*
D03*
Y79000D02*
D03*
X54000Y471000D02*
D03*
Y485000D02*
D03*
X636000Y332000D02*
D03*
Y318000D02*
D03*
X621000Y332000D02*
D03*
Y318000D02*
D03*
X566000Y334000D02*
D03*
Y320000D02*
D03*
D46*
X290000Y263000D02*
D03*
X304000D02*
D03*
X385000Y246000D02*
D03*
X371000D02*
D03*
X380000Y146000D02*
D03*
X366000D02*
D03*
X218000Y54000D02*
D03*
X204000D02*
D03*
X73000Y151000D02*
D03*
X87000D02*
D03*
X73000Y166000D02*
D03*
X87000D02*
D03*
X218000Y69000D02*
D03*
X204000D02*
D03*
X553000Y420000D02*
D03*
X539000D02*
D03*
X437000Y167000D02*
D03*
X423000D02*
D03*
X510000Y420000D02*
D03*
X524000D02*
D03*
X437000Y182000D02*
D03*
X423000D02*
D03*
X173000Y40000D02*
D03*
X159000D02*
D03*
X87000Y136000D02*
D03*
X73000D02*
D03*
X236000Y313000D02*
D03*
X222000D02*
D03*
X304000Y288000D02*
D03*
X290000D02*
D03*
X94000Y503000D02*
D03*
X108000D02*
D03*
X138000D02*
D03*
X124000D02*
D03*
D47*
X493000Y83000D02*
D03*
X463000D02*
D03*
D48*
X580000Y327500D02*
D03*
Y318000D02*
D03*
Y308500D02*
D03*
X606000D02*
D03*
Y318000D02*
D03*
Y327500D02*
D03*
D49*
X621750Y271250D02*
D03*
Y277750D02*
D03*
Y284250D02*
D03*
Y290750D02*
D03*
X566250Y271250D02*
D03*
Y277750D02*
D03*
Y284250D02*
D03*
Y290750D02*
D03*
D50*
X552000Y441000D02*
D03*
Y461000D02*
D03*
X436000Y461000D02*
D03*
Y441000D02*
D03*
D51*
X673000Y434000D02*
D03*
Y440500D02*
D03*
Y447000D02*
D03*
Y453500D02*
D03*
Y460000D02*
D03*
D52*
X674000Y416000D02*
D03*
Y478000D02*
D03*
D53*
X699500Y407000D02*
D03*
Y487000D02*
D03*
D54*
Y435750D02*
D03*
Y458250D02*
D03*
D55*
X531500Y461000D02*
D03*
X522000D02*
D03*
X512500D02*
D03*
Y435000D02*
D03*
X531500D02*
D03*
D56*
X133000Y208000D02*
D03*
Y231200D02*
D03*
X213000D02*
D03*
Y208000D02*
D03*
D57*
X246000Y353000D02*
D03*
X255500Y329000D02*
D03*
X236500D02*
D03*
D58*
X126000Y168000D02*
D03*
X221000D02*
D03*
D59*
X174000Y101000D02*
D03*
X183500Y79000D02*
D03*
X164500D02*
D03*
D60*
X316000Y355000D02*
D03*
Y323000D02*
D03*
D61*
X298973Y246678D02*
D03*
X303973D02*
D03*
X308973D02*
D03*
X313973D02*
D03*
X318973D02*
D03*
X323973D02*
D03*
X328973D02*
D03*
X333973D02*
D03*
X338973D02*
D03*
X343973D02*
D03*
X348973D02*
D03*
X353973D02*
D03*
Y162678D02*
D03*
X348973D02*
D03*
X343973D02*
D03*
X338973D02*
D03*
X333973D02*
D03*
X328973D02*
D03*
X323973D02*
D03*
X318973D02*
D03*
X313973D02*
D03*
X308973D02*
D03*
X303973D02*
D03*
X298973D02*
D03*
D62*
X368473Y232178D02*
D03*
Y227178D02*
D03*
Y222178D02*
D03*
Y217178D02*
D03*
Y212178D02*
D03*
Y207178D02*
D03*
Y202178D02*
D03*
Y197178D02*
D03*
Y192178D02*
D03*
Y187178D02*
D03*
Y182178D02*
D03*
Y177178D02*
D03*
X284473D02*
D03*
Y182178D02*
D03*
Y187178D02*
D03*
Y192178D02*
D03*
Y197178D02*
D03*
Y202178D02*
D03*
Y207178D02*
D03*
Y212178D02*
D03*
Y217178D02*
D03*
Y222178D02*
D03*
Y227178D02*
D03*
Y232178D02*
D03*
D63*
X224000Y255000D02*
D03*
X231000D02*
D03*
D64*
X395500Y59000D02*
D03*
X444500D02*
D03*
D65*
X461000Y461000D02*
D03*
X491000D02*
D03*
D66*
X268000Y111000D02*
Y138000D01*
X271000Y141000D01*
X213000Y116000D02*
X226000D01*
X211000D02*
X213000D01*
X201000Y116000D02*
X213000D01*
X238650Y44750D02*
X240000Y43400D01*
X203000Y44750D02*
X238650D01*
X608500Y318000D02*
X636000D01*
X608500Y318000D02*
X608500Y318000D01*
X606000Y318000D02*
X608500D01*
X531500Y463500D02*
X573000Y505000D01*
X574000D01*
X369750Y247250D02*
X371000Y246000D01*
X368750Y247250D02*
X369750D01*
X361000Y255000D02*
X368750Y247250D01*
X305200Y57000D02*
X317000Y45200D01*
X296000Y57000D02*
X305200D01*
X296200Y70800D02*
X316800D01*
X271000Y155000D02*
X286000D01*
X271000Y155000D02*
X271000Y155000D01*
X213000Y116000D02*
X213000Y116000D01*
X201000Y116000D02*
X201000Y116000D01*
X174250Y40000D02*
Y41243D01*
X171750Y41250D02*
X173000Y40000D01*
X171750Y41250D02*
Y44880D01*
X159500Y57130D02*
X171750Y44880D01*
X159500Y57130D02*
Y59500D01*
X203000Y44750D02*
Y54000D01*
X531500Y420000D02*
X539000D01*
X523000D02*
X530500D01*
X531500Y421000D02*
Y435000D01*
X530500Y420000D02*
X531500Y421000D01*
X536750Y421250D02*
X538000Y420000D01*
X290000Y288000D02*
Y299485D01*
X286485Y303000D02*
X290000Y299485D01*
X240515Y303000D02*
X286485D01*
X236500Y307015D02*
Y328500D01*
Y307015D02*
X240515Y303000D01*
X531500Y461000D02*
Y463500D01*
X522000Y449500D02*
Y461000D01*
Y449500D02*
X522000Y449500D01*
X564000Y281000D02*
X580000D01*
X491000Y461000D02*
X512500D01*
X246000Y353000D02*
Y375000D01*
X204000Y417000D02*
X246000Y375000D01*
X158500Y58500D02*
X159500Y59500D01*
D67*
X228000Y116000D02*
Y125479D01*
X220182Y124732D02*
X252000Y156550D01*
X188000Y122000D02*
X190732Y124732D01*
X220182D01*
X323973Y246678D02*
Y276890D01*
X328973Y252178D02*
X328973Y252178D01*
Y254249D01*
X333000Y258277D01*
X328973Y246678D02*
Y252178D01*
X333000Y258277D02*
Y356950D01*
X319062Y370888D02*
X333000Y356950D01*
X288640Y370888D02*
X319062D01*
X275000Y232178D02*
X284473D01*
X261000Y273000D02*
X263515Y270485D01*
Y272000D01*
Y243663D02*
Y270485D01*
Y243663D02*
X275000Y232178D01*
X252000Y187658D02*
X266520Y202178D01*
X234922Y222178D02*
X284473D01*
X264449Y207178D02*
X284473D01*
X271912Y227178D02*
X284473D01*
X231000Y255000D02*
X244091D01*
X245000Y211000D02*
X251178Y217178D01*
X262378Y212178D02*
X284473D01*
X251178Y217178D02*
X284473D01*
X266520Y202178D02*
X284473D01*
X247271Y190000D02*
X264449Y207178D01*
X244091Y255000D02*
X271912Y227178D01*
X187000Y250000D02*
X189750Y247250D01*
X213000Y231200D02*
X225900D01*
X224000Y255000D02*
X231000D01*
X245200Y195000D02*
X262378Y212178D01*
X225900Y231200D02*
X234922Y222178D01*
X380000Y146000D02*
X380000Y146000D01*
X394000Y283400D02*
X394600Y284000D01*
X380078Y222178D02*
X394000Y236101D01*
X368473Y222178D02*
X380078D01*
X394000Y236101D02*
Y283400D01*
X382000Y234605D02*
X385000Y237605D01*
X382000Y234000D02*
Y234605D01*
X385000Y237605D02*
Y246000D01*
X348261Y227178D02*
X368473D01*
X344082Y223000D02*
X348261Y227178D01*
X343000Y223000D02*
X344082D01*
X371000Y232178D02*
Y246000D01*
X368473Y232178D02*
X371000D01*
X388178Y207178D02*
X401000Y220000D01*
X368473Y207178D02*
X388178D01*
X380697Y202178D02*
X388275Y194600D01*
X368473Y202178D02*
X380697D01*
X388275Y194600D02*
X401000D01*
X355500Y128000D02*
Y128500D01*
X343973Y140027D02*
X355500Y128500D01*
X343973Y140027D02*
Y162678D01*
X329084Y144615D02*
Y147924D01*
X323973Y153036D02*
X329084Y147924D01*
Y144615D02*
X329850Y143850D01*
X284473Y177178D02*
X298822D01*
X299000Y177000D01*
X330400Y108000D02*
X342400Y96000D01*
X330400Y108000D02*
Y129600D01*
X318973Y141027D02*
X330400Y129600D01*
X318973Y141027D02*
Y162678D01*
X298973Y142932D02*
Y162678D01*
X295000Y138960D02*
X298973Y142932D01*
X295000Y72000D02*
Y138960D01*
Y72000D02*
X296000Y71000D01*
X300000Y84757D02*
Y136889D01*
X330400Y82600D02*
X342400Y70600D01*
X302157Y82600D02*
X330400D01*
X300000Y84757D02*
X302157Y82600D01*
X303973Y140861D02*
Y162678D01*
X300000Y136889D02*
X303973Y140861D01*
X308973Y138790D02*
Y162678D01*
X308973Y162678D02*
X308973Y162678D01*
X305000Y108000D02*
Y134817D01*
Y108000D02*
X317000Y96000D01*
X305000Y134817D02*
X308973Y138790D01*
X313973Y127675D02*
X317000Y124647D01*
X313973Y127675D02*
Y162678D01*
X317000Y121400D02*
Y124647D01*
X368473Y177178D02*
X412822D01*
X423000Y167000D01*
X368473Y182178D02*
X422822D01*
X423000Y182000D01*
X316800Y70800D02*
X317000Y70600D01*
X296000Y71000D02*
X296200Y70800D01*
X276902Y182178D02*
X284473D01*
X271000Y176276D02*
X276902Y182178D01*
X271000Y155000D02*
Y176276D01*
X211000Y102000D02*
X226000D01*
X241000Y116000D02*
Y131408D01*
X243000Y116000D02*
X243000Y116000D01*
X241000Y131408D02*
X262242Y152650D01*
X228000Y125479D02*
X257000Y154479D01*
X159500Y124500D02*
X159750Y124750D01*
X187750D01*
X219000Y168000D02*
X221000Y170000D01*
X124000Y166000D02*
X126000Y168000D01*
X221000Y170000D02*
Y188243D01*
X213000Y208000D02*
X216000Y211000D01*
X245000D01*
X313973Y246678D02*
Y278027D01*
X304000Y288000D02*
X313973Y278027D01*
X318973Y246678D02*
Y290973D01*
X320000Y292000D01*
X290000Y243080D02*
Y263000D01*
Y243080D02*
X303970Y229110D01*
X303973D01*
X298973Y246678D02*
Y257973D01*
X304000Y263000D01*
X303973Y229110D02*
Y246678D01*
Y229110D02*
X309000Y224082D01*
Y223000D02*
Y224082D01*
X328973Y155107D02*
X334284Y149796D01*
X336769D02*
X336973Y150000D01*
X334284Y149796D02*
X336769D01*
X110750Y440250D02*
Y467750D01*
Y440250D02*
X111000Y440000D01*
X110500Y468000D02*
X110750Y467750D01*
X110500Y468000D02*
Y470700D01*
X95700Y485500D02*
X110500Y470700D01*
X84500Y485500D02*
X95700D01*
X353973Y149027D02*
X357000Y146000D01*
X367000D01*
X353973Y149027D02*
Y162678D01*
X346000Y195918D02*
Y197000D01*
X348973Y162678D02*
Y192945D01*
X346000Y195918D02*
X348973Y192945D01*
X367000Y202178D02*
X368473D01*
X353973Y246678D02*
Y268773D01*
X369200Y284000D01*
X284473Y197178D02*
X301822D01*
X302000Y197000D01*
X333973Y162678D02*
Y175973D01*
X334000Y176000D01*
X328973Y155107D02*
Y162678D01*
X323973Y153036D02*
Y162678D01*
X262242Y152650D02*
Y183758D01*
X265662Y187178D02*
X284473D01*
X262242Y183758D02*
X265662Y187178D01*
X257000Y154479D02*
Y185587D01*
X263591Y192178D02*
X284473D01*
X257000Y185587D02*
X263591Y192178D01*
X252000Y156550D02*
Y187658D01*
X126000Y168000D02*
Y193243D01*
X127757Y195000D01*
X222757Y190000D02*
X247271D01*
X221000Y188243D02*
X222757Y190000D01*
X127757Y195000D02*
X245200D01*
D68*
X61000Y151000D02*
X73000D01*
X61000Y151000D02*
X61000Y151000D01*
X73000D02*
Y166000D01*
Y136000D02*
Y151000D01*
X566000Y334000D02*
X566750Y334750D01*
X570972D01*
X572222Y336000D01*
X617000D01*
X621000Y332000D01*
X606000Y327500D02*
Y331000D01*
X607000Y332000D02*
X621000D01*
X606000Y331000D02*
X607000Y332000D01*
X552000Y461000D02*
X553250D01*
X563000Y470750D01*
Y481000D01*
X262912Y320088D02*
X288640D01*
X256000Y327000D02*
X262912Y320088D01*
X314544Y321544D02*
X316000Y323000D01*
X290096Y321544D02*
X314544D01*
X288640Y320088D02*
X290096Y321544D01*
X319250Y306750D02*
X320000Y306000D01*
X319250Y306750D02*
Y320500D01*
X380000Y146000D02*
Y158000D01*
X342556Y121400D02*
X355206Y108750D01*
X363250D01*
X564000Y230000D02*
X579500Y245500D01*
X580500D01*
X533500D02*
X549000Y230000D01*
X532500Y245500D02*
X533500D01*
X549000Y230000D02*
X564000D01*
X395500Y78657D02*
X399843Y83000D01*
X463000D01*
X491700Y84300D02*
X493000Y83000D01*
X491700Y84300D02*
Y110700D01*
X490400Y112000D02*
X491700Y110700D01*
X364000Y79000D02*
X395157D01*
X395500Y78657D01*
X363250Y65750D02*
X364000Y65000D01*
X349415Y65750D02*
X363250D01*
X344565Y70600D02*
X349415Y65750D01*
X342400Y70600D02*
X344565D01*
X363250Y108750D02*
X364000Y108000D01*
X342400Y121400D02*
X342556D01*
X364000Y79000D02*
Y94000D01*
D69*
X646400Y342400D02*
X708000D01*
X636000Y332000D02*
X646400Y342400D01*
X552000Y441000D02*
X553000Y442000D01*
X437000Y167000D02*
X547000D01*
X580500Y200500D01*
X437000Y182000D02*
X449000D01*
X467500Y200500D01*
X533500D02*
X549000Y216000D01*
X532500Y200500D02*
X533500D01*
X564000Y216000D02*
X579500Y200500D01*
X580500D01*
X532500D02*
Y202500D01*
X452500Y59000D02*
X454500Y57000D01*
X278000Y130000D02*
X281314D01*
X285750Y134436D01*
Y140750D01*
X286000Y141000D01*
X218000Y69000D02*
X218250Y68750D01*
X241250D01*
X243000Y67000D01*
X218000Y54000D02*
Y69000D01*
X98500Y124500D02*
X114500D01*
X87000Y136000D02*
X98500Y124500D01*
X461000Y461000D02*
X469000Y453000D01*
X461000Y461000D02*
X461000Y461000D01*
X509750Y420250D02*
X510000Y420000D01*
X498265Y420250D02*
X509750D01*
X469000Y449515D02*
X498265Y420250D01*
X469000Y449515D02*
Y453000D01*
X303750Y263250D02*
X304000Y263000D01*
X303750Y263250D02*
Y274250D01*
X303000Y275000D02*
X303750Y274250D01*
X87000Y136000D02*
X87250Y136250D01*
X503000Y434000D02*
X511500D01*
X111000Y440000D02*
X244928D01*
X105200D02*
X111000D01*
X418106Y282106D02*
X420000D01*
X670500Y478000D02*
X673500Y475000D01*
Y462000D02*
Y475000D01*
Y477500D01*
X517985Y449500D02*
X522000D01*
X517985Y449500D02*
X517985Y449500D01*
X510000Y449500D02*
X517985D01*
X522000D02*
X542250D01*
X550750Y441000D01*
X552000Y281000D02*
X564000D01*
X244000Y390128D02*
X288640Y345488D01*
X244000Y390128D02*
Y417000D01*
X120100Y208000D02*
X133000D01*
X145900Y231200D02*
X149500Y234800D01*
X133000Y231200D02*
X145900D01*
X420000Y282106D02*
Y284000D01*
X244928Y440000D02*
X288640Y396288D01*
X79200Y414000D02*
X105200Y440000D01*
X288640Y345488D02*
X289979Y346827D01*
X305828D01*
X314000Y355000D01*
X316000D01*
X112204Y122204D02*
X114500Y124500D01*
X112204Y61796D02*
X114500Y59500D01*
D70*
X618000Y281000D02*
X634485D01*
X670485Y317000D02*
X708000D01*
X634485Y281000D02*
X670485Y317000D01*
X367000Y144750D02*
Y146000D01*
D71*
X342400Y45200D02*
X381950D01*
X367000Y124814D02*
Y157000D01*
Y124814D02*
X395500Y96314D01*
Y78657D02*
Y96314D01*
Y61000D02*
Y78657D01*
X381950Y45200D02*
X395750Y59000D01*
X393750Y61000D02*
X395500D01*
X393750D02*
X395750Y59000D01*
X333500Y28700D02*
X414450D01*
X422000Y461000D02*
X461000D01*
X414450Y28700D02*
X444750Y59000D01*
X317000Y45200D02*
X333500Y28700D01*
X444750Y59000D02*
X452500D01*
X567000Y267000D02*
X621000D01*
X461000Y461000D02*
X461000Y461000D01*
D72*
X188000Y85000D02*
Y108000D01*
X183500Y79000D02*
X184250Y79750D01*
Y81250D01*
X188000Y85000D01*
X191000Y55000D02*
X203000D01*
X174000Y72000D02*
Y101000D01*
Y72000D02*
X191000Y55000D01*
X189929Y231200D02*
X213000D01*
X187000Y234129D02*
Y250000D01*
Y234129D02*
X189929Y231200D01*
X219000Y168000D02*
X221000Y166000D01*
Y154000D02*
Y166000D01*
X87000Y151000D02*
X218000D01*
X221000Y154000D01*
X87000Y166000D02*
X124000D01*
X171000Y214000D02*
Y250000D01*
X177000Y208000D02*
X213000D01*
X171000Y214000D02*
X177000Y208000D01*
X164500Y79000D02*
Y79250D01*
X163750Y80000D02*
X164500Y79250D01*
D73*
X54000Y458000D02*
Y471000D01*
X54000Y458000D02*
X54000Y458000D01*
X116000Y503000D02*
X124000D01*
X108000D02*
X116000D01*
X116000Y514000D02*
X116000Y514000D01*
Y503000D02*
Y514000D01*
X108000Y503000D02*
X110750Y500250D01*
X107875Y502875D02*
X108000Y503000D01*
X104125Y460375D02*
Y467625D01*
X103750Y460000D02*
X104125Y460375D01*
Y467625D02*
X104250Y467750D01*
X119343Y461250D02*
X127157D01*
X117000Y466907D02*
Y467500D01*
X117000Y466907D02*
X117000Y466907D01*
X117000Y463593D02*
Y466907D01*
Y463593D02*
X119343Y461250D01*
X129750Y463843D02*
Y482000D01*
X123750Y488000D02*
X129750Y482000D01*
X127157Y461250D02*
X129750Y463843D01*
X123750Y488000D02*
Y488250D01*
X123875Y488375D01*
Y502875D01*
X124000Y503000D01*
X110750Y488250D02*
Y500250D01*
X123750Y467750D02*
Y476593D01*
X117000Y483343D02*
X123750Y476593D01*
X108093Y481000D02*
X114657D01*
X117000Y483343D02*
Y488000D01*
X114657Y481000D02*
X117000Y483343D01*
X104250Y488250D02*
X104500Y488000D01*
Y484593D02*
Y488000D01*
Y484593D02*
X108093Y481000D01*
X87500Y467750D02*
X104250D01*
X84750Y470500D02*
X87500Y467750D01*
X84500Y470500D02*
X84750D01*
X54500D02*
X74500D01*
X54000Y471000D02*
X54500Y470500D01*
Y485500D02*
X74500D01*
X54000Y485000D02*
X54500Y485500D01*
X660000Y434000D02*
X673000D01*
X579000Y319000D02*
X580000Y318000D01*
X567000Y319000D02*
X579000D01*
X566000Y320000D02*
X567000Y319000D01*
X565500Y319500D02*
X566000Y320000D01*
X590250Y290750D02*
X621750D01*
X590000Y291000D02*
X590250Y290750D01*
X580000Y327500D02*
X581000Y326500D01*
X585657D01*
X590000Y322157D01*
Y291000D02*
Y322157D01*
X554000Y293093D02*
Y306657D01*
X579500Y309000D02*
X580000Y308500D01*
X556343Y309000D02*
X579500D01*
X554000Y306657D02*
X556343Y309000D01*
Y290750D02*
X566250D01*
X554000Y293093D02*
X556343Y290750D01*
X673000Y440500D02*
Y447000D01*
D74*
X674000Y413500D02*
X676500D01*
X698500Y408000D02*
X699500Y407000D01*
X682000Y408000D02*
X698500D01*
X676500Y413500D02*
X682000Y408000D01*
X674000Y413500D02*
Y416000D01*
Y478000D02*
X682000Y486000D01*
X673500Y477500D02*
X674000Y478000D01*
X698500Y486000D02*
X699500Y487000D01*
X682000Y486000D02*
X698500D01*
X699500Y458250D02*
Y487000D01*
Y435750D02*
Y458250D01*
Y407000D02*
Y435750D01*
D75*
X268000Y111000D02*
D03*
X240000Y68800D02*
D03*
X708000Y342400D02*
D03*
X288640Y320088D02*
D03*
X401000Y194600D02*
D03*
X317000Y45200D02*
D03*
D76*
X240000Y43400D02*
D03*
Y18000D02*
D03*
X490400Y112000D02*
D03*
X574000Y505000D02*
D03*
X708000Y317000D02*
D03*
X369200Y284000D02*
D03*
X394600D02*
D03*
X420000D02*
D03*
X288640Y396288D02*
D03*
Y370888D02*
D03*
Y345488D02*
D03*
X401000Y220000D02*
D03*
X79200Y414000D02*
D03*
X104600D02*
D03*
X130000D02*
D03*
X342400Y121400D02*
D03*
X317000D02*
D03*
X342400Y96000D02*
D03*
X317000D02*
D03*
X342400Y70600D02*
D03*
X317000D02*
D03*
X342400Y45200D02*
D03*
D77*
X465000Y112000D02*
D03*
X599400Y505000D02*
D03*
X445400Y284000D02*
D03*
X155400Y414000D02*
D03*
D78*
X644000Y540000D02*
D03*
X59000D02*
D03*
X644000Y60000D02*
D03*
X59000D02*
D03*
D79*
X580500Y200500D02*
D03*
Y245500D02*
D03*
X645500Y200500D02*
D03*
Y245500D02*
D03*
X159500Y59500D02*
D03*
X114500D02*
D03*
X159500Y124500D02*
D03*
X114500D02*
D03*
X467500Y200500D02*
D03*
Y245500D02*
D03*
X532500Y200500D02*
D03*
Y245500D02*
D03*
D80*
X204000Y417000D02*
D03*
X244000D02*
D03*
D81*
X60485Y272000D02*
D03*
D82*
X263515D02*
D03*
D83*
X694000Y559000D02*
D03*
X707500Y532000D02*
D03*
X694000Y505000D02*
D03*
X707500Y370000D02*
D03*
X694000Y289000D02*
D03*
X707500Y262000D02*
D03*
X694000Y235000D02*
D03*
X707500Y208000D02*
D03*
X694000Y181000D02*
D03*
X707500Y154000D02*
D03*
X694000Y127000D02*
D03*
X707500Y100000D02*
D03*
X694000Y73000D02*
D03*
X707500Y46000D02*
D03*
X694000Y19000D02*
D03*
X680500Y532000D02*
D03*
X667000Y505000D02*
D03*
Y397000D02*
D03*
X680500Y370000D02*
D03*
X667000Y289000D02*
D03*
X680500Y262000D02*
D03*
X667000Y235000D02*
D03*
X680500Y208000D02*
D03*
X667000Y181000D02*
D03*
X680500Y154000D02*
D03*
X667000Y127000D02*
D03*
X680500Y100000D02*
D03*
Y46000D02*
D03*
X667000Y19000D02*
D03*
X640000Y397000D02*
D03*
X653500Y370000D02*
D03*
Y262000D02*
D03*
X640000Y181000D02*
D03*
X653500Y154000D02*
D03*
X640000Y127000D02*
D03*
X653500Y100000D02*
D03*
X640000Y19000D02*
D03*
X613000Y559000D02*
D03*
X626500Y370000D02*
D03*
X613000Y235000D02*
D03*
Y181000D02*
D03*
X626500Y154000D02*
D03*
X613000Y127000D02*
D03*
X626500Y100000D02*
D03*
X613000Y19000D02*
D03*
X586000Y559000D02*
D03*
X599500Y532000D02*
D03*
X586000Y181000D02*
D03*
X599500Y154000D02*
D03*
X586000Y127000D02*
D03*
X599500Y100000D02*
D03*
X586000Y73000D02*
D03*
X599500Y46000D02*
D03*
X586000Y19000D02*
D03*
X559000Y559000D02*
D03*
Y505000D02*
D03*
X572500Y154000D02*
D03*
X559000Y127000D02*
D03*
X572500Y100000D02*
D03*
X559000Y73000D02*
D03*
X572500Y46000D02*
D03*
X559000Y19000D02*
D03*
X532000Y559000D02*
D03*
Y289000D02*
D03*
X545500Y262000D02*
D03*
X532000Y181000D02*
D03*
X545500Y154000D02*
D03*
X532000Y127000D02*
D03*
X545500Y100000D02*
D03*
X532000Y73000D02*
D03*
X545500Y46000D02*
D03*
X532000Y19000D02*
D03*
X505000Y559000D02*
D03*
X518500Y532000D02*
D03*
X505000Y505000D02*
D03*
X518500Y478000D02*
D03*
X505000Y397000D02*
D03*
Y289000D02*
D03*
X518500Y262000D02*
D03*
X505000Y235000D02*
D03*
Y181000D02*
D03*
X518500Y154000D02*
D03*
X505000Y127000D02*
D03*
X518500Y100000D02*
D03*
X505000Y73000D02*
D03*
X518500Y46000D02*
D03*
X505000Y19000D02*
D03*
X478000Y559000D02*
D03*
X491500Y532000D02*
D03*
X478000Y397000D02*
D03*
Y289000D02*
D03*
X491500Y262000D02*
D03*
X478000Y181000D02*
D03*
X491500Y154000D02*
D03*
X478000Y127000D02*
D03*
Y73000D02*
D03*
X491500Y46000D02*
D03*
X478000Y19000D02*
D03*
X451000Y559000D02*
D03*
Y505000D02*
D03*
X464500Y424000D02*
D03*
X451000Y397000D02*
D03*
X464500Y370000D02*
D03*
Y262000D02*
D03*
X451000Y235000D02*
D03*
X464500Y154000D02*
D03*
X451000Y127000D02*
D03*
X464500Y46000D02*
D03*
X451000Y19000D02*
D03*
X424000Y559000D02*
D03*
X437500Y532000D02*
D03*
X424000Y505000D02*
D03*
X437500Y478000D02*
D03*
Y424000D02*
D03*
X424000Y397000D02*
D03*
Y343000D02*
D03*
Y235000D02*
D03*
X437500Y208000D02*
D03*
X424000Y127000D02*
D03*
X437500Y100000D02*
D03*
X424000Y19000D02*
D03*
X397000Y559000D02*
D03*
X410500Y532000D02*
D03*
X397000Y505000D02*
D03*
X410500Y478000D02*
D03*
Y424000D02*
D03*
X397000Y343000D02*
D03*
Y19000D02*
D03*
X370000Y559000D02*
D03*
X383500Y532000D02*
D03*
X370000Y505000D02*
D03*
X383500Y478000D02*
D03*
X370000Y451000D02*
D03*
Y397000D02*
D03*
Y19000D02*
D03*
X343000Y559000D02*
D03*
X356500Y532000D02*
D03*
X343000Y505000D02*
D03*
X356500Y478000D02*
D03*
X343000Y451000D02*
D03*
X356500Y424000D02*
D03*
X343000Y397000D02*
D03*
X356500Y370000D02*
D03*
X343000Y343000D02*
D03*
Y181000D02*
D03*
Y19000D02*
D03*
X316000Y559000D02*
D03*
X329500Y532000D02*
D03*
X316000Y505000D02*
D03*
X329500Y478000D02*
D03*
X316000Y451000D02*
D03*
X329500Y424000D02*
D03*
X316000Y181000D02*
D03*
Y19000D02*
D03*
X289000Y559000D02*
D03*
X302500Y532000D02*
D03*
X289000Y505000D02*
D03*
X302500Y478000D02*
D03*
X289000Y451000D02*
D03*
X302500Y424000D02*
D03*
Y208000D02*
D03*
X289000Y19000D02*
D03*
X262000Y559000D02*
D03*
X275500Y532000D02*
D03*
X262000Y505000D02*
D03*
X275500Y478000D02*
D03*
X262000Y451000D02*
D03*
Y397000D02*
D03*
Y343000D02*
D03*
X275500Y316000D02*
D03*
Y46000D02*
D03*
X262000Y19000D02*
D03*
X235000Y559000D02*
D03*
X248500Y532000D02*
D03*
X235000Y505000D02*
D03*
X248500Y478000D02*
D03*
X235000Y451000D02*
D03*
Y343000D02*
D03*
X248500Y316000D02*
D03*
X235000Y289000D02*
D03*
X208000Y559000D02*
D03*
X221500Y532000D02*
D03*
X208000Y505000D02*
D03*
X221500Y478000D02*
D03*
X208000Y451000D02*
D03*
X221500Y424000D02*
D03*
X208000Y397000D02*
D03*
Y343000D02*
D03*
Y289000D02*
D03*
Y19000D02*
D03*
X181000Y559000D02*
D03*
X194500Y532000D02*
D03*
X181000Y505000D02*
D03*
X194500Y478000D02*
D03*
X181000Y451000D02*
D03*
Y397000D02*
D03*
Y343000D02*
D03*
X194500Y316000D02*
D03*
X181000Y289000D02*
D03*
Y19000D02*
D03*
X154000Y559000D02*
D03*
X167500Y532000D02*
D03*
X154000Y505000D02*
D03*
X167500Y478000D02*
D03*
X154000Y397000D02*
D03*
Y343000D02*
D03*
X167500Y316000D02*
D03*
X154000Y289000D02*
D03*
Y19000D02*
D03*
X127000Y559000D02*
D03*
X140500Y532000D02*
D03*
Y478000D02*
D03*
Y424000D02*
D03*
X127000Y343000D02*
D03*
X140500Y316000D02*
D03*
X127000Y289000D02*
D03*
X140500Y262000D02*
D03*
Y100000D02*
D03*
X127000Y73000D02*
D03*
X140500Y46000D02*
D03*
X127000Y19000D02*
D03*
X100000Y559000D02*
D03*
X113500Y532000D02*
D03*
X100000Y397000D02*
D03*
X113500Y370000D02*
D03*
X100000Y343000D02*
D03*
X113500Y316000D02*
D03*
X100000Y289000D02*
D03*
X113500Y262000D02*
D03*
X100000Y235000D02*
D03*
Y73000D02*
D03*
Y19000D02*
D03*
X73000Y505000D02*
D03*
Y451000D02*
D03*
Y397000D02*
D03*
X86500Y370000D02*
D03*
X73000Y343000D02*
D03*
X86500Y316000D02*
D03*
X73000Y289000D02*
D03*
X86500Y262000D02*
D03*
X73000Y235000D02*
D03*
X86500Y208000D02*
D03*
X73000Y181000D02*
D03*
X86500Y100000D02*
D03*
X73000Y19000D02*
D03*
X46000Y505000D02*
D03*
Y451000D02*
D03*
X59500Y424000D02*
D03*
X46000Y397000D02*
D03*
X59500Y370000D02*
D03*
X46000Y343000D02*
D03*
X59500Y316000D02*
D03*
X46000Y289000D02*
D03*
Y235000D02*
D03*
X59500Y208000D02*
D03*
X46000Y181000D02*
D03*
X59500Y154000D02*
D03*
X46000Y127000D02*
D03*
X59500Y100000D02*
D03*
X46000Y19000D02*
D03*
X19000Y559000D02*
D03*
Y505000D02*
D03*
X32500Y478000D02*
D03*
X19000Y451000D02*
D03*
X32500Y424000D02*
D03*
X19000Y397000D02*
D03*
X32500Y370000D02*
D03*
X19000Y343000D02*
D03*
X32500Y316000D02*
D03*
X19000Y289000D02*
D03*
X32500Y262000D02*
D03*
X19000Y235000D02*
D03*
X32500Y208000D02*
D03*
X19000Y181000D02*
D03*
X32500Y154000D02*
D03*
X19000Y127000D02*
D03*
X32500Y100000D02*
D03*
X19000Y73000D02*
D03*
Y19000D02*
D03*
X563000Y481000D02*
D03*
X326000Y280000D02*
D03*
X380000Y158000D02*
D03*
X382000Y234000D02*
D03*
X361000Y255000D02*
D03*
X355500Y128000D02*
D03*
X329850Y143850D02*
D03*
X299000Y177000D02*
D03*
X278000Y130000D02*
D03*
X200000Y116000D02*
D03*
X303000Y275000D02*
D03*
X336973Y150000D02*
D03*
X503000Y434000D02*
D03*
X54000Y458000D02*
D03*
X116000Y514000D02*
D03*
X103750Y460000D02*
D03*
X309000Y223000D02*
D03*
X321000D02*
D03*
X332000D02*
D03*
X660000Y434000D02*
D03*
X343000Y223000D02*
D03*
X580000Y281000D02*
D03*
X552000D02*
D03*
X422000Y461000D02*
D03*
X390000Y371000D02*
D03*
X302000Y197000D02*
D03*
X334000Y176000D02*
D03*
X367000Y158000D02*
D03*
X346000Y197000D02*
D03*
M02*
