G04*
G04 #@! TF.GenerationSoftware,Altium Limited,Altium Designer,20.0.10 (225)*
G04*
G04 Layer_Color=8388736*
%FSLAX44Y44*%
%MOMM*%
G71*
G01*
G75*
%ADD13R,1.0000X1.0000*%
%ADD14R,1.0000X1.0000*%
%ADD15R,1.1500X1.7500*%
%ADD16R,0.4000X0.4500*%
%ADD17R,0.4500X0.4000*%
%ADD18R,0.3500X0.5000*%
%ADD19R,1.2500X0.7500*%
%ADD20R,1.8000X0.4500*%
%ADD21R,1.4000X1.1500*%
%ADD22R,1.5500X0.5500*%
%ADD23R,1.7500X2.2500*%
%ADD24R,2.0500X1.9500*%
%ADD25R,2.0500X1.9000*%
%ADD26R,0.7500X1.2500*%
%ADD27R,4.2500X1.6700*%
%ADD28R,0.7500X1.2500*%
%ADD29R,5.6500X2.1500*%
%ADD30R,0.8000X1.1000*%
%ADD31R,1.7500X1.3500*%
%ADD32O,0.4500X1.5500*%
%ADD33O,1.5500X0.4500*%
%ADD34R,0.6500X1.1500*%
%ADD35R,3.3000X1.7500*%
%ADD36R,2.5500X2.7500*%
%ADD37R,1.6500X1.6500*%
%ADD38C,1.6500*%
%ADD39R,1.6500X1.6500*%
%ADD40C,6.1500*%
%ADD41C,2.1500*%
%ADD42C,1.9500*%
%ADD43C,3.1500*%
%ADD44P,3.4096X8X202.5*%
D13*
X296000Y71000D02*
D03*
Y57000D02*
D03*
X364000Y44000D02*
D03*
Y30000D02*
D03*
X226000Y102000D02*
D03*
Y116000D02*
D03*
X211000Y102000D02*
D03*
Y116000D02*
D03*
X187000Y250000D02*
D03*
Y264000D02*
D03*
X171000Y250000D02*
D03*
Y264000D02*
D03*
X564000Y216000D02*
D03*
Y230000D02*
D03*
X188000Y54000D02*
D03*
Y40000D02*
D03*
X549000Y216000D02*
D03*
Y230000D02*
D03*
X271000Y155000D02*
D03*
Y141000D02*
D03*
X241000Y102000D02*
D03*
Y116000D02*
D03*
X286000Y155000D02*
D03*
Y141000D02*
D03*
X188000Y108000D02*
D03*
Y122000D02*
D03*
X320000Y292000D02*
D03*
Y306000D02*
D03*
X364000Y108000D02*
D03*
Y94000D02*
D03*
Y65000D02*
D03*
Y79000D02*
D03*
X54000Y471000D02*
D03*
Y485000D02*
D03*
X636000Y332000D02*
D03*
Y318000D02*
D03*
X621000Y332000D02*
D03*
Y318000D02*
D03*
X566000Y334000D02*
D03*
Y320000D02*
D03*
D14*
X290000Y263000D02*
D03*
X304000D02*
D03*
X385000Y246000D02*
D03*
X371000D02*
D03*
X380000Y146000D02*
D03*
X366000D02*
D03*
X218000Y54000D02*
D03*
X204000D02*
D03*
X73000Y151000D02*
D03*
X87000D02*
D03*
X73000Y166000D02*
D03*
X87000D02*
D03*
X218000Y69000D02*
D03*
X204000D02*
D03*
X553000Y420000D02*
D03*
X539000D02*
D03*
X437000Y167000D02*
D03*
X423000D02*
D03*
X510000Y420000D02*
D03*
X524000D02*
D03*
X437000Y182000D02*
D03*
X423000D02*
D03*
X173000Y40000D02*
D03*
X159000D02*
D03*
X87000Y136000D02*
D03*
X73000D02*
D03*
X236000Y313000D02*
D03*
X222000D02*
D03*
X304000Y288000D02*
D03*
X290000D02*
D03*
X94000Y503000D02*
D03*
X108000D02*
D03*
X138000D02*
D03*
X124000D02*
D03*
D15*
X493000Y83000D02*
D03*
X463000D02*
D03*
D16*
X87000Y478000D02*
D03*
X72000D02*
D03*
D17*
X84500Y485500D02*
D03*
Y470500D02*
D03*
X74500D02*
D03*
Y485500D02*
D03*
D18*
X123750Y467750D02*
D03*
X117250D02*
D03*
X110750D02*
D03*
X104250D02*
D03*
Y488250D02*
D03*
X110750D02*
D03*
X117250D02*
D03*
X123750D02*
D03*
D19*
X580000Y327500D02*
D03*
Y318000D02*
D03*
Y308500D02*
D03*
X606000D02*
D03*
Y318000D02*
D03*
Y327500D02*
D03*
D20*
X621750Y271250D02*
D03*
Y277750D02*
D03*
Y284250D02*
D03*
Y290750D02*
D03*
X566250Y271250D02*
D03*
Y277750D02*
D03*
Y284250D02*
D03*
Y290750D02*
D03*
D21*
X552000Y441000D02*
D03*
Y461000D02*
D03*
X436000Y461000D02*
D03*
Y441000D02*
D03*
D22*
X673000Y434000D02*
D03*
Y440500D02*
D03*
Y447000D02*
D03*
Y453500D02*
D03*
Y460000D02*
D03*
D23*
X674000Y416000D02*
D03*
Y478000D02*
D03*
D24*
X699500Y407000D02*
D03*
Y487000D02*
D03*
D25*
Y435750D02*
D03*
Y458250D02*
D03*
D26*
X531500Y461000D02*
D03*
X522000D02*
D03*
X512500D02*
D03*
Y435000D02*
D03*
X531500D02*
D03*
D27*
X133000Y208000D02*
D03*
Y231200D02*
D03*
X213000D02*
D03*
Y208000D02*
D03*
D28*
X246000Y353000D02*
D03*
X255500Y329000D02*
D03*
X236500D02*
D03*
D29*
X126000Y168000D02*
D03*
X221000D02*
D03*
D30*
X174000Y101000D02*
D03*
X183500Y79000D02*
D03*
X164500D02*
D03*
D31*
X316000Y355000D02*
D03*
Y323000D02*
D03*
D32*
X298973Y246678D02*
D03*
X303973D02*
D03*
X308973D02*
D03*
X313973D02*
D03*
X318973D02*
D03*
X323973D02*
D03*
X328973D02*
D03*
X333973D02*
D03*
X338973D02*
D03*
X343973D02*
D03*
X348973D02*
D03*
X353973D02*
D03*
Y162678D02*
D03*
X348973D02*
D03*
X343973D02*
D03*
X338973D02*
D03*
X333973D02*
D03*
X328973D02*
D03*
X323973D02*
D03*
X318973D02*
D03*
X313973D02*
D03*
X308973D02*
D03*
X303973D02*
D03*
X298973D02*
D03*
D33*
X368473Y232178D02*
D03*
Y227178D02*
D03*
Y222178D02*
D03*
Y217178D02*
D03*
Y212178D02*
D03*
Y207178D02*
D03*
Y202178D02*
D03*
Y197178D02*
D03*
Y192178D02*
D03*
Y187178D02*
D03*
Y182178D02*
D03*
Y177178D02*
D03*
X284473D02*
D03*
Y182178D02*
D03*
Y187178D02*
D03*
Y192178D02*
D03*
Y197178D02*
D03*
Y202178D02*
D03*
Y207178D02*
D03*
Y212178D02*
D03*
Y217178D02*
D03*
Y222178D02*
D03*
Y227178D02*
D03*
Y232178D02*
D03*
D34*
X224000Y255000D02*
D03*
X231000D02*
D03*
D35*
X395500Y59000D02*
D03*
X444500D02*
D03*
D36*
X461000Y461000D02*
D03*
X491000D02*
D03*
D37*
X268000Y111000D02*
D03*
X240000Y68800D02*
D03*
X708000Y342400D02*
D03*
X288640Y320088D02*
D03*
X401000Y194600D02*
D03*
X317000Y45200D02*
D03*
D38*
X240000Y43400D02*
D03*
Y18000D02*
D03*
X490400Y112000D02*
D03*
X574000Y505000D02*
D03*
X708000Y317000D02*
D03*
X369200Y284000D02*
D03*
X394600D02*
D03*
X420000D02*
D03*
X288640Y396288D02*
D03*
Y370888D02*
D03*
Y345488D02*
D03*
X401000Y220000D02*
D03*
X79200Y414000D02*
D03*
X104600D02*
D03*
X130000D02*
D03*
X342400Y121400D02*
D03*
X317000D02*
D03*
X342400Y96000D02*
D03*
X317000D02*
D03*
X342400Y70600D02*
D03*
X317000D02*
D03*
X342400Y45200D02*
D03*
D39*
X465000Y112000D02*
D03*
X599400Y505000D02*
D03*
X445400Y284000D02*
D03*
X155400Y414000D02*
D03*
D40*
X644000Y540000D02*
D03*
X59000D02*
D03*
X644000Y60000D02*
D03*
X59000D02*
D03*
D41*
X580500Y200500D02*
D03*
Y245500D02*
D03*
X645500Y200500D02*
D03*
Y245500D02*
D03*
X159500Y59500D02*
D03*
X114500D02*
D03*
X159500Y124500D02*
D03*
X114500D02*
D03*
X467500Y200500D02*
D03*
Y245500D02*
D03*
X532500Y200500D02*
D03*
Y245500D02*
D03*
D42*
X204000Y417000D02*
D03*
X244000D02*
D03*
D43*
X60485Y272000D02*
D03*
D44*
X263515D02*
D03*
M02*
