G04*
G04 #@! TF.GenerationSoftware,Altium Limited,Altium Designer,20.0.10 (225)*
G04*
G04 Layer_Color=16711935*
%FSLAX44Y44*%
%MOMM*%
G71*
G01*
G75*
%ADD13R,1.0000X1.0000*%
%ADD14R,1.0000X1.0000*%
%ADD28R,0.7500X1.2500*%
%ADD35R,3.3000X1.7500*%
%ADD37R,1.6500X1.6500*%
%ADD38C,1.6500*%
%ADD39R,1.6500X1.6500*%
%ADD40C,6.1500*%
%ADD41C,2.1500*%
%ADD42C,1.9500*%
%ADD43C,3.1500*%
%ADD44P,3.4096X8X202.5*%
%ADD89R,1.3500X1.7500*%
%ADD90R,1.1500X1.4000*%
%ADD91R,2.6000X3.3500*%
%ADD92R,3.5000X1.1500*%
%ADD93R,1.1500X0.6500*%
D13*
X574000Y541000D02*
D03*
Y527000D02*
D03*
X305000Y370000D02*
D03*
Y356000D02*
D03*
X320000Y370000D02*
D03*
Y356000D02*
D03*
D14*
X367000Y300000D02*
D03*
X353000D02*
D03*
X410000Y125000D02*
D03*
X396000D02*
D03*
X367000D02*
D03*
X381000D02*
D03*
Y169000D02*
D03*
X395000D02*
D03*
D28*
X395500Y107000D02*
D03*
X414500D02*
D03*
X405000Y83000D02*
D03*
D35*
X390500Y358000D02*
D03*
X439500D02*
D03*
D37*
X268000Y111000D02*
D03*
X240000Y68800D02*
D03*
X708000Y342400D02*
D03*
X288640Y320088D02*
D03*
X401000Y194600D02*
D03*
X317000Y45200D02*
D03*
D38*
X240000Y43400D02*
D03*
Y18000D02*
D03*
X490400Y112000D02*
D03*
X574000Y505000D02*
D03*
X708000Y317000D02*
D03*
X369200Y284000D02*
D03*
X394600D02*
D03*
X420000D02*
D03*
X288640Y396288D02*
D03*
Y370888D02*
D03*
Y345488D02*
D03*
X401000Y220000D02*
D03*
X79200Y414000D02*
D03*
X104600D02*
D03*
X130000D02*
D03*
X342400Y121400D02*
D03*
X317000D02*
D03*
X342400Y96000D02*
D03*
X317000D02*
D03*
X342400Y70600D02*
D03*
X317000D02*
D03*
X342400Y45200D02*
D03*
D39*
X465000Y112000D02*
D03*
X599400Y505000D02*
D03*
X445400Y284000D02*
D03*
X155400Y414000D02*
D03*
D40*
X644000Y540000D02*
D03*
X59000D02*
D03*
X644000Y60000D02*
D03*
X59000D02*
D03*
D41*
X580500Y200500D02*
D03*
Y245500D02*
D03*
X645500Y200500D02*
D03*
Y245500D02*
D03*
X159500Y59500D02*
D03*
X114500D02*
D03*
X159500Y124500D02*
D03*
X114500D02*
D03*
X467500Y200500D02*
D03*
Y245500D02*
D03*
X532500Y200500D02*
D03*
Y245500D02*
D03*
D42*
X204000Y417000D02*
D03*
X244000D02*
D03*
D43*
X60485Y272000D02*
D03*
D44*
X263515D02*
D03*
D89*
X260000Y35000D02*
D03*
X292000D02*
D03*
X127000Y440000D02*
D03*
X159000D02*
D03*
D90*
X334000Y197000D02*
D03*
X314000D02*
D03*
D91*
X537500Y525000D02*
D03*
X470500D02*
D03*
D92*
X699000Y434250D02*
D03*
Y477750D02*
D03*
D93*
X433000Y173000D02*
D03*
Y166000D02*
D03*
X411000Y173000D02*
D03*
Y166000D02*
D03*
X454000Y173000D02*
D03*
Y166000D02*
D03*
M02*
