M48
;Layer_Color=9474304
;FILE_FORMAT=4:4
METRIC,LZ
;TYPE=PLATED
T1F00S00C0.3000
T2F00S00C0.9000
T3F00S00C1.0000
T4F00S00C1.2000
T5F00S00C4.0000
%
T01
X00343Y00019
X0037
X00397
X00424
X00451
X00478
X00505
X00532
X00559
X00586
X00613
X0064
X00667
X00694
X007075Y00046
X006805
X00694Y00073
X007075Y001
X006805
X006535
X006265
X005995
X005725
X005455
X005185
X00532Y00127
X00559
X00586
X00613
X0064
X00667
X00694
X007075Y00154
X006805
X006535
X006265
X005995
X005725
X005455
X005185
X004915
X004645
X00478Y00181
X00505
X00532
X00586
X00613
X0064
X00667
X00694
X007075Y00208
X006805
X00694Y00235
X00667
X006805Y00262
X007075
X00694Y00289
X00667
X006535Y00262
X00613Y00235
X0058Y00281
X00552
X005455Y00262
X005185
X004915
X004645
X00478Y00289
X00505
X00532
X00505Y00235
X00451
X00424
X004375Y00208
X00382Y00234
X00361Y00255
X00343Y00223
X00346Y00197
X00343Y00181
X00367Y00158
X0038Y00158
X003555Y00128
X00424Y00127
X00451
X00478
X00505
Y00073
X00532
X00559
X00586
X005995Y00046
X005725
X005455
X005185
X004915
X004645
X00478Y00073
X004375Y001
X00336973Y0015
X0032985Y0014385
X00334Y00176
X00316Y00181
X00299Y00177
X00302Y00197
X003025Y00208
X00309Y00223
X00321
X00332
X00326Y0028
X00303Y00275
X002755Y00316
X002485
X00235Y00289
X00208
X00181
X00154
X00127
X001
X00073
X00046
X00019
X000325Y00316
X000595
X000865
X001135
X001405
X001675
X001945
X001405Y00262
X001135
X000865
X001Y00235
X00073
X00046
X00019
X000325Y00262
Y00208
X000595
X000865
X00073Y00181
X00046
X00019
X000325Y00154
X000595
X00046Y00127
X00019
X000325Y001
X000595
X000865
X001Y00073
X00127
X001405Y001
Y00046
X00154Y00019
X00181
X00208
X00262
X00289
X00316
X002755Y00046
X00278Y0013
X002Y00116
X00127Y00019
X001
X00073
X00046
X00019
Y00073
Y00343
X00046
X00073
X001
X00127
X00154
X00181
X00208
X00235
X00262
Y00397
Y00451
X00289
X00316
X003295Y00478
X003025
X002755
X002485
X002215
X001945
X001675
X001405
X00154Y00505
X00181
X00208
X00235
X00262
X00289
X00316
X003295Y00532
X003025
X002755
X002485
X002215
X001945
X001675
X001405
X001135
X00116Y00514
X00073Y00505
X00046
X00019
X000325Y00478
X00046Y00451
X00054Y00458
X00073Y00451
X0010375Y0046
X001Y00397
X00073
X00046
X00019
X000325Y00424
X000595
Y0037
X000865
X001135
X00154Y00397
X00181
X00208
X002215Y00424
X00235Y00451
X00208
X00181
X001405Y00424
X00154Y00559
X00181
X00208
X00235
X00262
X00289
X00316
X003295Y00424
X003025
X00127Y00559
X001
X00019
Y00451
X000325Y0037
X003565
X0039Y00371
X00397Y00343
X00424
Y00397
X00451
X00478
X00505
X00503Y00434
X004645Y00424
X004375
X004105
X00422Y00461
X004105Y00478
X004375
X00451Y00505
X00424
X00397
X0037
X00343
X003565Y00532
X003835
X004105
X004375
X00451Y00559
X00478
X00505
X00532
X00559
X00586
X00613
X005995Y00532
X00559Y00505
X00563Y00481
X005185Y00478
X00505Y00505
X005185Y00532
X004915
X00424Y00559
X00397
X0037
X00343
X003565Y00478
X003835
X0037Y00451
X00343
X003565Y00424
X0037Y00397
X00343
Y00343
X004645Y0037
X006265
X006535
X006805
X007075
X00667Y00397
X0064
X0066Y00434
X00667Y00505
X00694
X007075Y00532
X006805
X00694Y00559
T02
X003424Y000452
Y000706
Y00096
Y001214
X00401Y001946
Y0022
X003946Y00284
X003692
X0042
X004454
X00465Y00112
X004904
X00708Y00317
X0028864Y00320088
X00317Y001214
Y00096
Y000706
Y000452
X0024Y000434
Y000688
Y00018
X00268Y00111
X0028864Y00345488
Y00370888
Y00396288
X001554Y00414
X0013
X001046
X000792
X00574Y00505
X005994
X00708Y003424
T03
X00204Y00417
X00244
T04
X004675Y002005
Y002455
X005325
Y002005
X005805
Y002455
X006455
Y002005
X00263515Y00272
X00060485
X001145Y001245
X001595
Y000595
X001145
T05
X00644Y0006
X00059
Y0054
X00644
M30
